<svg width="490" height="490" viewBox="0 0 490 490" fill="none" xmlns="http://www.w3.org/2000/svg">
<g clip-path="url(#clip0_22_32)">
<path d="M490.004 245.009C490.014 260.263 488.601 275.485 485.783 290.477C456.887 375.349 376.497 436.389 281.861 436.389C186.694 436.389 109.552 359.247 109.552 264.08C109.51 237.488 117.203 211.457 131.692 189.159C123.116 206.526 118.668 225.64 118.698 245.009C118.698 314.765 175.252 371.306 244.996 371.306C296.511 371.306 340.832 340.466 360.473 296.237C373.425 274.783 380.251 250.189 380.209 225.129C380.209 129.962 303.067 52.8195 207.9 52.8195C114.225 52.8195 34.5175 112.621 4.882 196.132C27.527 84.2287 126.432 0 245 0C380.314 0 490.004 109.691 490.004 245.009Z" fill="#F6F6F6"/>
<path d="M485.801 290.477C464.499 404.058 364.794 490.017 245.013 490.017C109.708 490.017 0.0173802 380.327 0.0173802 245.022C0.00442107 228.604 1.6326 212.226 4.87764 196.132C34.5174 112.621 114.225 52.8195 207.896 52.8195C303.062 52.8195 380.205 129.962 380.205 225.129C380.246 250.189 373.42 274.783 360.468 296.237C367.627 280.108 371.313 262.655 371.289 245.009C371.289 175.252 314.748 118.711 244.991 118.711C195.293 118.711 152.303 147.403 131.688 189.159C117.198 211.457 109.506 237.488 109.547 264.08C109.547 359.247 186.69 436.389 281.856 436.389C376.497 436.389 456.887 375.349 485.801 290.477Z" fill="#BCBCBC"/>
</g>
<defs>
<clipPath id="clip0_22_32">
<rect width="490" height="490" fill="white"/>
</clipPath>
</defs>
</svg>
