<svg width="1920" height="1080" viewBox="0 0 1920 1080" fill="none" xmlns="http://www.w3.org/2000/svg">
<g clip-path="url(#clip0_22_29)">
<rect width="1920" height="1080" fill="#0C0C0C"/>
<g filter="url(#filter0_f_22_29)">
<path d="M725 540C725 675.31 615.31 785 480 785C344.69 785 235 675.31 235 540C235 404.69 344.69 295 480 295C615.31 295 725 404.69 725 540ZM353.628 540C353.628 609.793 410.207 666.372 480 666.372C549.793 666.372 606.372 609.793 606.372 540C606.372 470.207 549.793 413.628 480 413.628C410.207 413.628 353.628 470.207 353.628 540Z" fill="white"/>
</g>
<g clip-path="url(#clip1_22_29)">
<path d="M725.004 540.009C725.014 555.263 723.601 570.485 720.783 585.477C691.887 670.349 611.497 731.389 516.861 731.389C421.694 731.389 344.552 654.247 344.552 559.08C344.51 532.488 352.203 506.457 366.692 484.159C358.116 501.526 353.668 520.64 353.698 540.009C353.698 609.765 410.252 666.306 479.996 666.306C531.511 666.306 575.832 635.466 595.473 591.237C608.425 569.783 615.251 545.189 615.209 520.129C615.209 424.962 538.067 347.82 442.9 347.82C349.225 347.82 269.517 407.621 239.882 491.132C262.527 379.229 361.432 295 480 295C615.314 295 725.004 404.691 725.004 540.009Z" fill="#F6F6F6"/>
<path d="M720.801 585.477C699.499 699.058 599.794 785.017 480.013 785.017C344.708 785.017 235.017 675.327 235.017 540.022C235.004 523.604 236.633 507.226 239.878 491.132C269.517 407.621 349.225 347.82 442.896 347.82C538.062 347.82 615.205 424.962 615.205 520.129C615.246 545.189 608.42 569.783 595.468 591.237C602.627 575.108 606.313 557.655 606.289 540.009C606.289 470.252 549.748 413.711 479.991 413.711C430.293 413.711 387.303 442.403 366.688 484.159C352.198 506.457 344.506 532.488 344.547 559.08C344.547 654.247 421.69 731.389 516.856 731.389C611.497 731.389 691.887 670.349 720.801 585.477Z" fill="#BCBCBC"/>
</g>
<path d="M1241.12 278L1231.13 243.091H1239.19L1244.97 267.347H1245.26L1251.64 243.091H1258.54L1264.9 267.398H1265.21L1270.98 243.091H1279.05L1269.06 278H1261.86L1255.22 255.176H1254.94L1248.31 278H1241.12ZM1299.18 278.511C1296.49 278.511 1294.17 277.966 1292.22 276.875C1290.29 275.773 1288.8 274.216 1287.76 272.205C1286.71 270.182 1286.19 267.79 1286.19 265.028C1286.19 262.335 1286.71 259.972 1287.76 257.938C1288.8 255.903 1290.28 254.318 1292.17 253.182C1294.08 252.045 1296.32 251.477 1298.89 251.477C1300.62 251.477 1302.22 251.756 1303.71 252.312C1305.21 252.858 1306.52 253.682 1307.63 254.784C1308.76 255.886 1309.63 257.273 1310.26 258.943C1310.88 260.602 1311.2 262.545 1311.2 264.773V266.767H1289.09V262.267H1304.36C1304.36 261.222 1304.13 260.295 1303.68 259.489C1303.22 258.682 1302.59 258.051 1301.79 257.597C1300.99 257.131 1300.07 256.898 1299.01 256.898C1297.91 256.898 1296.93 257.153 1296.08 257.665C1295.24 258.165 1294.58 258.841 1294.1 259.693C1293.62 260.534 1293.38 261.472 1293.37 262.506V266.784C1293.37 268.08 1293.61 269.199 1294.08 270.142C1294.57 271.085 1295.26 271.812 1296.15 272.324C1297.03 272.835 1298.08 273.091 1299.3 273.091C1300.11 273.091 1300.84 272.977 1301.51 272.75C1302.19 272.523 1302.76 272.182 1303.24 271.727C1303.71 271.273 1304.08 270.716 1304.33 270.057L1311.04 270.5C1310.7 272.114 1310 273.523 1308.95 274.727C1307.9 275.92 1306.55 276.852 1304.89 277.523C1303.24 278.182 1301.34 278.511 1299.18 278.511ZM1330.4 243.091V278H1323.14V243.091H1330.4ZM1355.24 278.511C1352.56 278.511 1350.25 277.943 1348.32 276.807C1346.4 275.659 1344.92 274.068 1343.89 272.034C1342.87 270 1342.36 267.659 1342.36 265.011C1342.36 262.33 1342.87 259.977 1343.91 257.955C1344.95 255.92 1346.44 254.335 1348.36 253.199C1350.28 252.051 1352.56 251.477 1355.21 251.477C1357.49 251.477 1359.49 251.892 1361.21 252.722C1362.92 253.551 1364.28 254.716 1365.28 256.216C1366.28 257.716 1366.83 259.477 1366.94 261.5H1360.08C1359.89 260.193 1359.38 259.142 1358.55 258.347C1357.73 257.54 1356.66 257.136 1355.33 257.136C1354.2 257.136 1353.22 257.443 1352.38 258.057C1351.55 258.659 1350.9 259.54 1350.44 260.699C1349.97 261.858 1349.74 263.261 1349.74 264.909C1349.74 266.58 1349.96 268 1350.42 269.17C1350.88 270.341 1351.54 271.233 1352.38 271.847C1353.22 272.46 1354.2 272.767 1355.33 272.767C1356.16 272.767 1356.9 272.597 1357.56 272.256C1358.23 271.915 1358.78 271.42 1359.21 270.773C1359.66 270.114 1359.95 269.324 1360.08 268.403H1366.94C1366.82 270.403 1366.28 272.165 1365.3 273.688C1364.33 275.199 1363 276.381 1361.29 277.233C1359.59 278.085 1357.57 278.511 1355.24 278.511ZM1390.61 278.511C1387.97 278.511 1385.68 277.949 1383.75 276.824C1381.82 275.687 1380.34 274.108 1379.3 272.085C1378.25 270.051 1377.73 267.693 1377.73 265.011C1377.73 262.307 1378.25 259.943 1379.3 257.92C1380.34 255.886 1381.82 254.307 1383.75 253.182C1385.68 252.045 1387.97 251.477 1390.61 251.477C1393.26 251.477 1395.55 252.045 1397.47 253.182C1399.4 254.307 1400.89 255.886 1401.93 257.92C1402.98 259.943 1403.5 262.307 1403.5 265.011C1403.5 267.693 1402.98 270.051 1401.93 272.085C1400.89 274.108 1399.4 275.687 1397.47 276.824C1395.55 277.949 1393.26 278.511 1390.61 278.511ZM1390.65 272.886C1391.85 272.886 1392.86 272.545 1393.67 271.864C1394.47 271.17 1395.08 270.227 1395.49 269.034C1395.91 267.841 1396.12 266.483 1396.12 264.96C1396.12 263.438 1395.91 262.08 1395.49 260.886C1395.08 259.693 1394.47 258.75 1393.67 258.057C1392.86 257.364 1391.85 257.017 1390.65 257.017C1389.43 257.017 1388.41 257.364 1387.58 258.057C1386.76 258.75 1386.14 259.693 1385.72 260.886C1385.31 262.08 1385.11 263.438 1385.11 264.96C1385.11 266.483 1385.31 267.841 1385.72 269.034C1386.14 270.227 1386.76 271.17 1387.58 271.864C1388.41 272.545 1389.43 272.886 1390.65 272.886ZM1415.42 278V251.818H1422.34V256.438H1422.65C1423.2 254.903 1424.1 253.693 1425.38 252.807C1426.65 251.92 1428.17 251.477 1429.95 251.477C1431.74 251.477 1433.27 251.926 1434.53 252.824C1435.79 253.71 1436.63 254.915 1437.05 256.438H1437.33C1437.86 254.938 1438.83 253.739 1440.22 252.841C1441.63 251.932 1443.3 251.477 1445.22 251.477C1447.66 251.477 1449.64 252.256 1451.17 253.812C1452.7 255.358 1453.47 257.551 1453.47 260.392V278H1446.22V261.824C1446.22 260.369 1445.84 259.278 1445.06 258.551C1444.29 257.824 1443.33 257.46 1442.17 257.46C1440.85 257.46 1439.82 257.881 1439.08 258.722C1438.34 259.551 1437.97 260.648 1437.97 262.011V278H1430.93V261.67C1430.93 260.386 1430.56 259.364 1429.83 258.602C1429.1 257.841 1428.14 257.46 1426.95 257.46C1426.14 257.46 1425.41 257.665 1424.76 258.074C1424.13 258.472 1423.62 259.034 1423.25 259.761C1422.87 260.477 1422.68 261.318 1422.68 262.284V278H1415.42ZM1478.34 278.511C1475.64 278.511 1473.32 277.966 1471.38 276.875C1469.45 275.773 1467.96 274.216 1466.92 272.205C1465.87 270.182 1465.35 267.79 1465.35 265.028C1465.35 262.335 1465.87 259.972 1466.92 257.938C1467.96 255.903 1469.43 254.318 1471.33 253.182C1473.24 252.045 1475.48 251.477 1478.05 251.477C1479.77 251.477 1481.38 251.756 1482.87 252.312C1484.37 252.858 1485.68 253.682 1486.79 254.784C1487.92 255.886 1488.79 257.273 1489.42 258.943C1490.04 260.602 1490.35 262.545 1490.35 264.773V266.767H1468.24V262.267H1483.52C1483.52 261.222 1483.29 260.295 1482.84 259.489C1482.38 258.682 1481.75 258.051 1480.94 257.597C1480.15 257.131 1479.22 256.898 1478.17 256.898C1477.06 256.898 1476.09 257.153 1475.23 257.665C1474.39 258.165 1473.73 258.841 1473.26 259.693C1472.78 260.534 1472.53 261.472 1472.52 262.506V266.784C1472.52 268.08 1472.76 269.199 1473.24 270.142C1473.73 271.085 1474.42 271.812 1475.3 272.324C1476.19 272.835 1477.24 273.091 1478.46 273.091C1479.26 273.091 1480 272.977 1480.67 272.75C1481.34 272.523 1481.92 272.182 1482.39 271.727C1482.87 271.273 1483.23 270.716 1483.48 270.057L1490.2 270.5C1489.86 272.114 1489.16 273.523 1488.1 274.727C1487.06 275.92 1485.71 276.852 1484.05 277.523C1482.4 278.182 1480.49 278.511 1478.34 278.511ZM1520.74 278V243.091H1528V256.216H1528.22C1528.54 255.511 1529 254.795 1529.6 254.068C1530.21 253.33 1531.01 252.716 1531.99 252.227C1532.98 251.727 1534.2 251.477 1535.67 251.477C1537.58 251.477 1539.34 251.977 1540.95 252.977C1542.57 253.966 1543.86 255.46 1544.82 257.46C1545.79 259.449 1546.27 261.943 1546.27 264.943C1546.27 267.864 1545.8 270.33 1544.86 272.341C1543.92 274.341 1542.65 275.858 1541.04 276.892C1539.44 277.915 1537.64 278.426 1535.65 278.426C1534.24 278.426 1533.04 278.193 1532.06 277.727C1531.08 277.261 1530.28 276.676 1529.65 275.972C1529.03 275.256 1528.55 274.534 1528.22 273.807H1527.9V278H1520.74ZM1527.85 264.909C1527.85 266.466 1528.06 267.824 1528.49 268.983C1528.92 270.142 1529.55 271.045 1530.37 271.693C1531.19 272.33 1532.18 272.648 1533.35 272.648C1534.53 272.648 1535.53 272.324 1536.35 271.676C1537.17 271.017 1537.79 270.108 1538.21 268.949C1538.64 267.778 1538.86 266.432 1538.86 264.909C1538.86 263.398 1538.65 262.068 1538.23 260.92C1537.81 259.773 1537.19 258.875 1536.37 258.227C1535.55 257.58 1534.54 257.256 1533.35 257.256C1532.17 257.256 1531.17 257.568 1530.35 258.193C1529.54 258.818 1528.92 259.705 1528.49 260.852C1528.06 262 1527.85 263.352 1527.85 264.909ZM1565.78 278.494C1564.11 278.494 1562.62 278.205 1561.32 277.625C1560.01 277.034 1558.98 276.165 1558.21 275.017C1557.46 273.858 1557.09 272.415 1557.09 270.688C1557.09 269.233 1557.36 268.011 1557.89 267.023C1558.42 266.034 1559.15 265.239 1560.07 264.636C1560.99 264.034 1562.04 263.58 1563.21 263.273C1564.39 262.966 1565.63 262.75 1566.92 262.625C1568.45 262.466 1569.67 262.318 1570.61 262.182C1571.54 262.034 1572.21 261.818 1572.63 261.534C1573.06 261.25 1573.27 260.83 1573.27 260.273V260.17C1573.27 259.091 1572.92 258.256 1572.24 257.665C1571.57 257.074 1570.62 256.778 1569.38 256.778C1568.07 256.778 1567.03 257.068 1566.26 257.648C1565.49 258.216 1564.98 258.932 1564.73 259.795L1558.01 259.25C1558.35 257.659 1559.02 256.284 1560.02 255.125C1561.02 253.955 1562.31 253.057 1563.89 252.432C1565.48 251.795 1567.32 251.477 1569.41 251.477C1570.87 251.477 1572.26 251.648 1573.59 251.989C1574.93 252.33 1576.12 252.858 1577.15 253.574C1578.2 254.29 1579.02 255.21 1579.62 256.335C1580.23 257.449 1580.53 258.784 1580.53 260.341V278H1573.64V274.369H1573.44C1573.02 275.188 1572.45 275.909 1571.75 276.534C1571.04 277.148 1570.2 277.631 1569.21 277.983C1568.22 278.324 1567.08 278.494 1565.78 278.494ZM1567.86 273.483C1568.93 273.483 1569.87 273.273 1570.69 272.852C1571.51 272.42 1572.15 271.841 1572.62 271.114C1573.08 270.386 1573.32 269.562 1573.32 268.642V265.864C1573.09 266.011 1572.78 266.148 1572.38 266.273C1571.99 266.386 1571.56 266.494 1571.07 266.597C1570.58 266.687 1570.09 266.773 1569.6 266.852C1569.11 266.92 1568.67 266.983 1568.27 267.04C1567.42 267.165 1566.67 267.364 1566.04 267.636C1565.4 267.909 1564.91 268.278 1564.56 268.744C1564.2 269.199 1564.03 269.767 1564.03 270.449C1564.03 271.438 1564.38 272.193 1565.1 272.716C1565.83 273.227 1566.75 273.483 1567.86 273.483ZM1605.19 278.511C1602.51 278.511 1600.2 277.943 1598.27 276.807C1596.35 275.659 1594.87 274.068 1593.84 272.034C1592.81 270 1592.3 267.659 1592.3 265.011C1592.3 262.33 1592.82 259.977 1593.85 257.955C1594.9 255.92 1596.38 254.335 1598.3 253.199C1600.22 252.051 1602.51 251.477 1605.16 251.477C1607.44 251.477 1609.44 251.892 1611.16 252.722C1612.87 253.551 1614.23 254.716 1615.23 256.216C1616.23 257.716 1616.78 259.477 1616.88 261.5H1610.03C1609.84 260.193 1609.33 259.142 1608.5 258.347C1607.68 257.54 1606.6 257.136 1605.27 257.136C1604.15 257.136 1603.17 257.443 1602.33 258.057C1601.5 258.659 1600.85 259.54 1600.38 260.699C1599.92 261.858 1599.68 263.261 1599.68 264.909C1599.68 266.58 1599.91 268 1600.37 269.17C1600.83 270.341 1601.49 271.233 1602.33 271.847C1603.17 272.46 1604.15 272.767 1605.27 272.767C1606.1 272.767 1606.85 272.597 1607.51 272.256C1608.18 271.915 1608.73 271.42 1609.16 270.773C1609.6 270.114 1609.89 269.324 1610.03 268.403H1616.88C1616.77 270.403 1616.22 272.165 1615.25 273.688C1614.28 275.199 1612.95 276.381 1611.24 277.233C1609.54 278.085 1607.52 278.511 1605.19 278.511ZM1635.31 270.466L1635.33 261.756H1636.39L1644.77 251.818H1653.11L1641.84 264.977H1640.12L1635.31 270.466ZM1628.73 278V243.091H1635.99V278H1628.73ZM1645.1 278L1637.39 266.597L1642.23 261.466L1653.6 278H1645.1Z" fill="white"/>
<rect x="1212" y="392" width="456" height="68" rx="18" fill="#323232" stroke="#4A4A4A" stroke-width="4"/>
<rect x="1212" y="504" width="456" height="68" rx="18" fill="#323232" stroke="#4A4A4A" stroke-width="4"/>
<g filter="url(#filter1_f_22_29)">
<rect x="1210" y="634" width="460" height="72" rx="20" fill="#F6F6F6"/>
</g>
<rect x="1210" y="634" width="460" height="72" rx="20" fill="#F6F6F6"/>
<rect x="1212" y="768" width="456" height="68" rx="18" fill="#323232" stroke="white" stroke-width="4"/>
<path d="M1241.31 418.455H1243.07V428.085C1243.07 429.08 1242.83 429.967 1242.37 430.749C1241.9 431.525 1241.25 432.138 1240.4 432.588C1239.55 433.033 1238.56 433.256 1237.41 433.256C1236.27 433.256 1235.28 433.033 1234.43 432.588C1233.58 432.138 1232.93 431.525 1232.46 430.749C1231.99 429.967 1231.76 429.08 1231.76 428.085V418.455H1233.52V427.943C1233.52 428.653 1233.68 429.286 1233.99 429.839C1234.3 430.389 1234.75 430.822 1235.33 431.139C1235.91 431.452 1236.61 431.608 1237.41 431.608C1238.22 431.608 1238.92 431.452 1239.5 431.139C1240.09 430.822 1240.53 430.389 1240.84 429.839C1241.15 429.286 1241.31 428.653 1241.31 427.943V418.455ZM1254.09 424.534L1252.58 424.96C1252.49 424.709 1252.35 424.465 1252.16 424.229C1251.98 423.987 1251.73 423.788 1251.42 423.632C1251.11 423.476 1250.71 423.398 1250.22 423.398C1249.55 423.398 1249 423.552 1248.55 423.859C1248.11 424.162 1247.89 424.548 1247.89 425.017C1247.89 425.434 1248.04 425.763 1248.35 426.004C1248.65 426.246 1249.12 426.447 1249.77 426.608L1251.39 427.006C1252.36 427.242 1253.09 427.605 1253.57 428.092C1254.05 428.575 1254.28 429.198 1254.28 429.96C1254.28 430.585 1254.1 431.144 1253.74 431.636C1253.39 432.129 1252.89 432.517 1252.25 432.801C1251.61 433.085 1250.87 433.227 1250.02 433.227C1248.91 433.227 1247.99 432.986 1247.26 432.503C1246.53 432.02 1246.07 431.314 1245.88 430.386L1247.47 429.989C1247.62 430.576 1247.9 431.016 1248.33 431.31C1248.75 431.603 1249.31 431.75 1249.99 431.75C1250.78 431.75 1251.4 431.584 1251.86 431.253C1252.32 430.917 1252.55 430.514 1252.55 430.045C1252.55 429.667 1252.42 429.349 1252.15 429.094C1251.89 428.833 1251.48 428.639 1250.93 428.511L1249.11 428.085C1248.11 427.848 1247.38 427.482 1246.91 426.984C1246.45 426.482 1246.22 425.855 1246.22 425.102C1246.22 424.487 1246.39 423.942 1246.73 423.469C1247.09 422.995 1247.56 422.624 1248.16 422.354C1248.77 422.084 1249.45 421.949 1250.22 421.949C1251.3 421.949 1252.15 422.186 1252.76 422.659C1253.38 423.133 1253.83 423.758 1254.09 424.534ZM1261.38 433.227C1260.33 433.227 1259.42 432.995 1258.66 432.531C1257.9 432.062 1257.32 431.409 1256.91 430.571C1256.5 429.728 1256.3 428.748 1256.3 427.631C1256.3 426.513 1256.5 425.528 1256.91 424.676C1257.32 423.819 1257.89 423.152 1258.63 422.673C1259.36 422.19 1260.23 421.949 1261.21 421.949C1261.78 421.949 1262.34 422.044 1262.89 422.233C1263.45 422.422 1263.95 422.73 1264.41 423.156C1264.86 423.578 1265.22 424.136 1265.49 424.832C1265.76 425.528 1265.9 426.385 1265.9 427.403V428.114H1257.49V426.665H1264.19C1264.19 426.049 1264.07 425.5 1263.82 425.017C1263.58 424.534 1263.24 424.153 1262.79 423.874C1262.34 423.594 1261.82 423.455 1261.21 423.455C1260.54 423.455 1259.97 423.62 1259.48 423.952C1259 424.278 1258.62 424.705 1258.36 425.23C1258.1 425.756 1257.97 426.319 1257.97 426.92V427.886C1257.97 428.71 1258.11 429.409 1258.4 429.982C1258.69 430.55 1259.09 430.983 1259.6 431.281C1260.11 431.575 1260.7 431.722 1261.38 431.722C1261.82 431.722 1262.22 431.66 1262.57 431.537C1262.93 431.409 1263.24 431.22 1263.5 430.969C1263.77 430.713 1263.97 430.396 1264.11 430.017L1265.73 430.472C1265.56 431.021 1265.27 431.504 1264.87 431.92C1264.47 432.332 1263.97 432.654 1263.38 432.886C1262.79 433.114 1262.12 433.227 1261.38 433.227ZM1268.45 433V422.091H1270.07V423.739H1270.18C1270.38 423.199 1270.74 422.761 1271.26 422.425C1271.78 422.089 1272.37 421.92 1273.02 421.92C1273.15 421.92 1273.3 421.923 1273.48 421.928C1273.67 421.932 1273.81 421.939 1273.9 421.949V423.653C1273.85 423.639 1273.72 423.618 1273.51 423.589C1273.31 423.556 1273.1 423.54 1272.88 423.54C1272.35 423.54 1271.88 423.651 1271.46 423.874C1271.05 424.091 1270.72 424.394 1270.48 424.783C1270.24 425.166 1270.12 425.604 1270.12 426.097V433H1268.45ZM1277.57 426.438V433H1275.89V422.091H1277.51V423.795H1277.65C1277.91 423.241 1278.29 422.796 1278.82 422.46C1279.34 422.119 1280.01 421.949 1280.83 421.949C1281.57 421.949 1282.22 422.1 1282.77 422.403C1283.33 422.702 1283.76 423.156 1284.06 423.767C1284.37 424.373 1284.53 425.14 1284.53 426.068V433H1282.85V426.182C1282.85 425.325 1282.63 424.657 1282.18 424.179C1281.74 423.696 1281.13 423.455 1280.35 423.455C1279.81 423.455 1279.34 423.571 1278.92 423.803C1278.5 424.035 1278.17 424.373 1277.93 424.818C1277.69 425.263 1277.57 425.803 1277.57 426.438ZM1290.8 433.256C1290.11 433.256 1289.48 433.125 1288.92 432.865C1288.35 432.6 1287.91 432.219 1287.57 431.722C1287.24 431.22 1287.08 430.614 1287.08 429.903C1287.08 429.278 1287.2 428.772 1287.45 428.384C1287.69 427.991 1288.02 427.683 1288.43 427.46C1288.85 427.238 1289.3 427.072 1289.8 426.963C1290.3 426.849 1290.8 426.759 1291.31 426.693C1291.97 426.608 1292.51 426.544 1292.92 426.501C1293.34 426.454 1293.64 426.376 1293.83 426.267C1294.03 426.158 1294.12 425.969 1294.12 425.699V425.642C1294.12 424.941 1293.93 424.397 1293.55 424.009C1293.17 423.62 1292.59 423.426 1291.82 423.426C1291.02 423.426 1290.39 423.601 1289.94 423.952C1289.49 424.302 1289.17 424.676 1288.98 425.074L1287.39 424.506C1287.67 423.843 1288.05 423.327 1288.53 422.957C1289 422.583 1289.53 422.323 1290.09 422.176C1290.66 422.025 1291.22 421.949 1291.76 421.949C1292.12 421.949 1292.52 421.991 1292.97 422.077C1293.43 422.157 1293.87 422.325 1294.3 422.581C1294.73 422.837 1295.09 423.223 1295.37 423.739C1295.66 424.255 1295.8 424.946 1295.8 425.812V433H1294.12V431.523H1294.04C1293.92 431.759 1293.73 432.013 1293.47 432.283C1293.2 432.553 1292.85 432.782 1292.41 432.972C1291.97 433.161 1291.43 433.256 1290.8 433.256ZM1291.05 431.75C1291.72 431.75 1292.28 431.62 1292.73 431.359C1293.19 431.099 1293.54 430.763 1293.77 430.351C1294 429.939 1294.12 429.506 1294.12 429.051V427.517C1294.05 427.602 1293.9 427.68 1293.65 427.751C1293.42 427.818 1293.14 427.877 1292.83 427.929C1292.52 427.976 1292.22 428.019 1291.93 428.057C1291.64 428.09 1291.41 428.118 1291.23 428.142C1290.79 428.199 1290.38 428.291 1290 428.419C1289.63 428.542 1289.33 428.729 1289.09 428.98C1288.87 429.226 1288.75 429.562 1288.75 429.989C1288.75 430.571 1288.97 431.011 1289.4 431.31C1289.84 431.603 1290.39 431.75 1291.05 431.75ZM1298.86 433V422.091H1300.48V423.795H1300.62C1300.85 423.213 1301.21 422.761 1301.72 422.439C1302.23 422.112 1302.84 421.949 1303.55 421.949C1304.27 421.949 1304.86 422.112 1305.34 422.439C1305.83 422.761 1306.2 423.213 1306.47 423.795H1306.59C1306.86 423.232 1307.28 422.785 1307.84 422.453C1308.4 422.117 1309.07 421.949 1309.85 421.949C1310.83 421.949 1311.63 422.254 1312.25 422.865C1312.87 423.471 1313.18 424.416 1313.18 425.699V433H1311.5V425.699C1311.5 424.894 1311.28 424.319 1310.84 423.973C1310.4 423.627 1309.88 423.455 1309.28 423.455C1308.52 423.455 1307.92 423.687 1307.5 424.151C1307.08 424.61 1306.87 425.192 1306.87 425.898V433H1305.17V425.528C1305.17 424.908 1304.96 424.409 1304.56 424.03C1304.16 423.646 1303.64 423.455 1303.01 423.455C1302.57 423.455 1302.16 423.571 1301.78 423.803C1301.41 424.035 1301.11 424.357 1300.88 424.768C1300.65 425.176 1300.53 425.647 1300.53 426.182V433H1298.86ZM1320.81 433.227C1319.76 433.227 1318.86 432.995 1318.09 432.531C1317.34 432.062 1316.75 431.409 1316.34 430.571C1315.93 429.728 1315.73 428.748 1315.73 427.631C1315.73 426.513 1315.93 425.528 1316.34 424.676C1316.75 423.819 1317.33 423.152 1318.06 422.673C1318.8 422.19 1319.66 421.949 1320.64 421.949C1321.21 421.949 1321.77 422.044 1322.33 422.233C1322.88 422.422 1323.39 422.73 1323.84 423.156C1324.3 423.578 1324.66 424.136 1324.93 424.832C1325.2 425.528 1325.33 426.385 1325.33 427.403V428.114H1316.92V426.665H1323.63C1323.63 426.049 1323.5 425.5 1323.26 425.017C1323.02 424.534 1322.67 424.153 1322.22 423.874C1321.78 423.594 1321.25 423.455 1320.64 423.455C1319.98 423.455 1319.4 423.62 1318.91 423.952C1318.43 424.278 1318.06 424.705 1317.8 425.23C1317.54 425.756 1317.41 426.319 1317.41 426.92V427.886C1317.41 428.71 1317.55 429.409 1317.83 429.982C1318.12 430.55 1318.52 430.983 1319.03 431.281C1319.54 431.575 1320.14 431.722 1320.81 431.722C1321.26 431.722 1321.65 431.66 1322.01 431.537C1322.37 431.409 1322.68 431.22 1322.94 430.969C1323.2 430.713 1323.4 430.396 1323.54 430.017L1325.16 430.472C1324.99 431.021 1324.7 431.504 1324.3 431.92C1323.9 432.332 1323.4 432.654 1322.81 432.886C1322.22 433.114 1321.55 433.227 1320.81 433.227Z" fill="#D9D9D9"/>
<path d="M1231.76 545V530.455H1236.68C1237.82 530.455 1238.75 530.661 1239.47 531.072C1240.2 531.48 1240.74 532.031 1241.09 532.727C1241.44 533.423 1241.62 534.2 1241.62 535.057C1241.62 535.914 1241.44 536.693 1241.09 537.393C1240.75 538.094 1240.21 538.653 1239.49 539.07C1238.76 539.482 1237.84 539.688 1236.7 539.688H1233.18V538.125H1236.65C1237.43 538.125 1238.06 537.99 1238.53 537.72C1239 537.45 1239.35 537.086 1239.56 536.626C1239.78 536.162 1239.89 535.639 1239.89 535.057C1239.89 534.474 1239.78 533.954 1239.56 533.494C1239.35 533.035 1239 532.675 1238.52 532.415C1238.04 532.15 1237.41 532.017 1236.62 532.017H1233.52V545H1231.76ZM1247.44 545.256C1246.75 545.256 1246.12 545.125 1245.56 544.865C1244.99 544.6 1244.55 544.219 1244.22 543.722C1243.88 543.22 1243.72 542.614 1243.72 541.903C1243.72 541.278 1243.84 540.772 1244.09 540.384C1244.33 539.991 1244.66 539.683 1245.07 539.46C1245.49 539.238 1245.94 539.072 1246.44 538.963C1246.94 538.849 1247.44 538.759 1247.95 538.693C1248.61 538.608 1249.15 538.544 1249.56 538.501C1249.98 538.454 1250.28 538.376 1250.47 538.267C1250.67 538.158 1250.76 537.969 1250.76 537.699V537.642C1250.76 536.941 1250.57 536.397 1250.19 536.009C1249.81 535.62 1249.23 535.426 1248.46 535.426C1247.66 535.426 1247.03 535.601 1246.58 535.952C1246.13 536.302 1245.81 536.676 1245.62 537.074L1244.03 536.506C1244.31 535.843 1244.69 535.327 1245.17 534.957C1245.65 534.583 1246.17 534.323 1246.73 534.176C1247.3 534.025 1247.86 533.949 1248.41 533.949C1248.76 533.949 1249.16 533.991 1249.61 534.077C1250.07 534.157 1250.51 534.325 1250.94 534.581C1251.37 534.837 1251.73 535.223 1252.01 535.739C1252.3 536.255 1252.44 536.946 1252.44 537.812V545H1250.76V543.523H1250.68C1250.56 543.759 1250.38 544.013 1250.11 544.283C1249.84 544.553 1249.49 544.782 1249.05 544.972C1248.61 545.161 1248.07 545.256 1247.44 545.256ZM1247.7 543.75C1248.36 543.75 1248.92 543.62 1249.37 543.359C1249.83 543.099 1250.18 542.763 1250.41 542.351C1250.65 541.939 1250.76 541.506 1250.76 541.051V539.517C1250.69 539.602 1250.54 539.68 1250.29 539.751C1250.06 539.818 1249.78 539.877 1249.47 539.929C1249.16 539.976 1248.86 540.019 1248.57 540.057C1248.28 540.09 1248.05 540.118 1247.87 540.142C1247.43 540.199 1247.02 540.291 1246.64 540.419C1246.27 540.542 1245.97 540.729 1245.74 540.98C1245.51 541.226 1245.39 541.562 1245.39 541.989C1245.39 542.571 1245.61 543.011 1246.04 543.31C1246.48 543.603 1247.03 543.75 1247.7 543.75ZM1263.23 536.534L1261.72 536.96C1261.63 536.709 1261.49 536.465 1261.3 536.229C1261.12 535.987 1260.88 535.788 1260.56 535.632C1260.25 535.476 1259.85 535.398 1259.36 535.398C1258.69 535.398 1258.14 535.552 1257.69 535.859C1257.25 536.162 1257.03 536.548 1257.03 537.017C1257.03 537.434 1257.18 537.763 1257.49 538.004C1257.79 538.246 1258.26 538.447 1258.91 538.608L1260.53 539.006C1261.5 539.242 1262.23 539.605 1262.71 540.092C1263.19 540.575 1263.43 541.198 1263.43 541.96C1263.43 542.585 1263.25 543.144 1262.89 543.636C1262.53 544.129 1262.03 544.517 1261.39 544.801C1260.75 545.085 1260.01 545.227 1259.16 545.227C1258.05 545.227 1257.13 544.986 1256.4 544.503C1255.67 544.02 1255.21 543.314 1255.02 542.386L1256.61 541.989C1256.76 542.576 1257.04 543.016 1257.47 543.31C1257.89 543.603 1258.45 543.75 1259.14 543.75C1259.92 543.75 1260.54 543.584 1261 543.253C1261.46 542.917 1261.69 542.514 1261.69 542.045C1261.69 541.667 1261.56 541.349 1261.29 541.094C1261.03 540.833 1260.62 540.639 1260.07 540.511L1258.25 540.085C1257.26 539.848 1256.52 539.482 1256.05 538.984C1255.59 538.482 1255.36 537.855 1255.36 537.102C1255.36 536.487 1255.53 535.942 1255.88 535.469C1256.23 534.995 1256.7 534.624 1257.3 534.354C1257.91 534.084 1258.6 533.949 1259.36 533.949C1260.44 533.949 1261.29 534.186 1261.91 534.659C1262.53 535.133 1262.97 535.758 1263.23 536.534ZM1273.68 536.534L1272.17 536.96C1272.08 536.709 1271.94 536.465 1271.75 536.229C1271.57 535.987 1271.32 535.788 1271.01 535.632C1270.7 535.476 1270.3 535.398 1269.81 535.398C1269.14 535.398 1268.59 535.552 1268.14 535.859C1267.7 536.162 1267.48 536.548 1267.48 537.017C1267.48 537.434 1267.63 537.763 1267.94 538.004C1268.24 538.246 1268.71 538.447 1269.36 538.608L1270.98 539.006C1271.95 539.242 1272.68 539.605 1273.16 540.092C1273.64 540.575 1273.87 541.198 1273.87 541.96C1273.87 542.585 1273.69 543.144 1273.33 543.636C1272.98 544.129 1272.48 544.517 1271.84 544.801C1271.2 545.085 1270.46 545.227 1269.61 545.227C1268.5 545.227 1267.58 544.986 1266.85 544.503C1266.12 544.02 1265.66 543.314 1265.47 542.386L1267.06 541.989C1267.21 542.576 1267.49 543.016 1267.92 543.31C1268.34 543.603 1268.9 543.75 1269.58 543.75C1270.37 543.75 1270.99 543.584 1271.45 543.253C1271.91 542.917 1272.14 542.514 1272.14 542.045C1272.14 541.667 1272.01 541.349 1271.74 541.094C1271.48 540.833 1271.07 540.639 1270.52 540.511L1268.7 540.085C1267.7 539.848 1266.97 539.482 1266.5 538.984C1266.04 538.482 1265.81 537.855 1265.81 537.102C1265.81 536.487 1265.98 535.942 1266.32 535.469C1266.67 534.995 1267.15 534.624 1267.75 534.354C1268.36 534.084 1269.04 533.949 1269.81 533.949C1270.89 533.949 1271.74 534.186 1272.35 534.659C1272.97 535.133 1273.42 535.758 1273.68 536.534ZM1278.87 545L1275.55 534.091H1277.31L1279.66 542.443H1279.78L1282.11 534.091H1283.9L1286.2 542.415H1286.31L1288.67 534.091H1290.43L1287.11 545H1285.46L1283.07 536.619H1282.9L1280.52 545H1278.87ZM1296.71 545.227C1295.72 545.227 1294.86 544.993 1294.12 544.524C1293.38 544.055 1292.8 543.4 1292.38 542.557C1291.97 541.714 1291.76 540.729 1291.76 539.602C1291.76 538.466 1291.97 537.474 1292.38 536.626C1292.8 535.779 1293.38 535.121 1294.12 534.652C1294.86 534.183 1295.72 533.949 1296.71 533.949C1297.69 533.949 1298.55 534.183 1299.29 534.652C1300.04 535.121 1300.61 535.779 1301.03 536.626C1301.44 537.474 1301.65 538.466 1301.65 539.602C1301.65 540.729 1301.44 541.714 1301.03 542.557C1300.61 543.4 1300.04 544.055 1299.29 544.524C1298.55 544.993 1297.69 545.227 1296.71 545.227ZM1296.71 543.722C1297.46 543.722 1298.07 543.53 1298.55 543.146C1299.04 542.763 1299.4 542.259 1299.63 541.634C1299.86 541.009 1299.98 540.331 1299.98 539.602C1299.98 538.873 1299.86 538.194 1299.63 537.564C1299.4 536.934 1299.04 536.425 1298.55 536.037C1298.07 535.649 1297.46 535.455 1296.71 535.455C1295.96 535.455 1295.34 535.649 1294.86 536.037C1294.38 536.425 1294.02 536.934 1293.79 537.564C1293.56 538.194 1293.44 538.873 1293.44 539.602C1293.44 540.331 1293.56 541.009 1293.79 541.634C1294.02 542.259 1294.38 542.763 1294.86 543.146C1295.34 543.53 1295.96 543.722 1296.71 543.722ZM1304.21 545V534.091H1305.83V535.739H1305.94C1306.14 535.199 1306.5 534.761 1307.02 534.425C1307.54 534.089 1308.13 533.92 1308.78 533.92C1308.91 533.92 1309.06 533.923 1309.25 533.928C1309.43 533.932 1309.57 533.939 1309.66 533.949V535.653C1309.61 535.639 1309.48 535.618 1309.27 535.589C1309.07 535.556 1308.86 535.54 1308.64 535.54C1308.11 535.54 1307.64 535.651 1307.22 535.874C1306.81 536.091 1306.48 536.394 1306.24 536.783C1306 537.166 1305.89 537.604 1305.89 538.097V545H1304.21ZM1315.44 545.227C1314.53 545.227 1313.73 544.998 1313.03 544.538C1312.33 544.074 1311.79 543.421 1311.4 542.578C1311 541.731 1310.81 540.729 1310.81 539.574C1310.81 538.428 1311 537.434 1311.4 536.591C1311.79 535.748 1312.34 535.097 1313.04 534.638C1313.74 534.179 1314.55 533.949 1315.47 533.949C1316.18 533.949 1316.74 534.067 1317.15 534.304C1317.57 534.536 1317.88 534.801 1318.1 535.099C1318.32 535.393 1318.5 535.634 1318.62 535.824H1318.76V530.455H1320.44V545H1318.82V543.324H1318.62C1318.5 543.523 1318.32 543.774 1318.09 544.077C1317.87 544.375 1317.54 544.643 1317.12 544.879C1316.7 545.111 1316.14 545.227 1315.44 545.227ZM1315.67 543.722C1316.34 543.722 1316.91 543.546 1317.37 543.196C1317.83 542.841 1318.19 542.351 1318.43 541.726C1318.67 541.096 1318.79 540.369 1318.79 539.545C1318.79 538.731 1318.67 538.018 1318.44 537.408C1318.2 536.792 1317.85 536.314 1317.38 535.973C1316.92 535.627 1316.35 535.455 1315.67 535.455C1314.96 535.455 1314.36 535.637 1313.89 536.001C1313.42 536.361 1313.07 536.851 1312.83 537.472C1312.6 538.087 1312.48 538.778 1312.48 539.545C1312.48 540.322 1312.6 541.027 1312.84 541.662C1313.08 542.292 1313.44 542.794 1313.9 543.168C1314.38 543.537 1314.97 543.722 1315.67 543.722Z" fill="#D9D9D9"/>
<path d="M1440.25 735.727C1440.25 737.313 1439.95 738.663 1439.34 739.776C1438.75 740.888 1437.93 741.738 1436.9 742.325C1435.87 742.908 1434.72 743.199 1433.43 743.199C1432.14 743.199 1430.98 742.905 1429.95 742.318C1428.93 741.731 1428.12 740.881 1427.52 739.768C1426.92 738.656 1426.62 737.309 1426.62 735.727C1426.62 734.141 1426.92 732.792 1427.52 731.679C1428.12 730.566 1428.93 729.719 1429.95 729.136C1430.98 728.549 1432.14 728.256 1433.43 728.256C1434.72 728.256 1435.87 728.549 1436.9 729.136C1437.93 729.719 1438.75 730.566 1439.34 731.679C1439.95 732.792 1440.25 734.141 1440.25 735.727ZM1437.13 735.727C1437.13 734.7 1436.97 733.833 1436.67 733.128C1436.36 732.422 1435.93 731.887 1435.38 731.523C1434.83 731.158 1434.18 730.976 1433.43 730.976C1432.69 730.976 1432.04 731.158 1431.49 731.523C1430.93 731.887 1430.5 732.422 1430.2 733.128C1429.89 733.833 1429.74 734.7 1429.74 735.727C1429.74 736.755 1429.89 737.621 1430.2 738.327C1430.5 739.032 1430.93 739.567 1431.49 739.932C1432.04 740.296 1432.69 740.479 1433.43 740.479C1434.18 740.479 1434.83 740.296 1435.38 739.932C1435.93 739.567 1436.36 739.032 1436.67 738.327C1436.97 737.621 1437.13 736.755 1437.13 735.727ZM1442.52 743V728.455H1448.26C1449.36 728.455 1450.3 728.651 1451.08 729.044C1451.86 729.432 1452.45 729.984 1452.86 730.699C1453.27 731.409 1453.48 732.245 1453.48 733.206C1453.48 734.172 1453.27 735.003 1452.85 735.699C1452.43 736.39 1451.83 736.92 1451.04 737.29C1450.25 737.659 1449.3 737.844 1448.18 737.844H1444.34V735.372H1447.69C1448.27 735.372 1448.76 735.292 1449.15 735.131C1449.54 734.97 1449.83 734.728 1450.02 734.406C1450.21 734.084 1450.31 733.684 1450.31 733.206C1450.31 732.723 1450.21 732.316 1450.02 731.984C1449.83 731.653 1449.54 731.402 1449.14 731.232C1448.76 731.056 1448.26 730.969 1447.67 730.969H1445.6V743H1442.52ZM1450.38 736.381L1453.99 743H1450.6L1447.06 736.381H1450.38Z" fill="#D9D9D9"/>
<path d="M1414.18 677V662.455H1417.26V674.464H1423.5V677H1414.18ZM1430.4 677.213C1429.3 677.213 1428.35 676.979 1427.54 676.51C1426.74 676.036 1426.12 675.378 1425.69 674.536C1425.25 673.688 1425.03 672.705 1425.03 671.588C1425.03 670.461 1425.25 669.476 1425.69 668.634C1426.12 667.786 1426.74 667.128 1427.54 666.659C1428.35 666.186 1429.3 665.949 1430.4 665.949C1431.51 665.949 1432.46 666.186 1433.26 666.659C1434.06 667.128 1434.68 667.786 1435.12 668.634C1435.56 669.476 1435.77 670.461 1435.77 671.588C1435.77 672.705 1435.56 673.688 1435.12 674.536C1434.68 675.378 1434.06 676.036 1433.26 676.51C1432.46 676.979 1431.51 677.213 1430.4 677.213ZM1430.42 674.869C1430.92 674.869 1431.34 674.727 1431.68 674.443C1432.01 674.154 1432.26 673.761 1432.44 673.264C1432.61 672.767 1432.7 672.201 1432.7 671.567C1432.7 670.932 1432.61 670.366 1432.44 669.869C1432.26 669.372 1432.01 668.979 1431.68 668.69C1431.34 668.402 1430.92 668.257 1430.42 668.257C1429.91 668.257 1429.49 668.402 1429.14 668.69C1428.8 668.979 1428.54 669.372 1428.37 669.869C1428.2 670.366 1428.11 670.932 1428.11 671.567C1428.11 672.201 1428.2 672.767 1428.37 673.264C1428.54 673.761 1428.8 674.154 1429.14 674.443C1429.49 674.727 1429.91 674.869 1430.42 674.869ZM1442.66 681.318C1441.68 681.318 1440.83 681.183 1440.13 680.913C1439.44 680.648 1438.88 680.286 1438.47 679.827C1438.06 679.367 1437.79 678.851 1437.67 678.278L1440.47 677.902C1440.55 678.12 1440.69 678.323 1440.87 678.513C1441.06 678.702 1441.3 678.854 1441.6 678.967C1441.91 679.086 1442.29 679.145 1442.73 679.145C1443.38 679.145 1443.93 678.984 1444.35 678.662C1444.78 678.345 1445 677.812 1445 677.064V675.068H1444.87C1444.74 675.371 1444.54 675.658 1444.27 675.928C1444.01 676.197 1443.67 676.418 1443.25 676.588C1442.84 676.759 1442.34 676.844 1441.76 676.844C1440.94 676.844 1440.2 676.654 1439.52 676.276C1438.86 675.892 1438.32 675.307 1437.93 674.521C1437.53 673.731 1437.34 672.732 1437.34 671.524C1437.34 670.288 1437.54 669.256 1437.94 668.428C1438.34 667.599 1438.88 666.979 1439.54 666.567C1440.22 666.155 1440.95 665.949 1441.75 665.949C1442.36 665.949 1442.88 666.053 1443.29 666.261C1443.7 666.465 1444.03 666.721 1444.28 667.028C1444.54 667.331 1444.73 667.63 1444.87 667.923H1444.98V666.091H1447.99V677.107C1447.99 678.035 1447.76 678.811 1447.31 679.436C1446.85 680.061 1446.22 680.53 1445.42 680.842C1444.62 681.16 1443.7 681.318 1442.66 681.318ZM1442.72 674.571C1443.21 674.571 1443.62 674.45 1443.96 674.209C1444.3 673.963 1444.56 673.612 1444.74 673.158C1444.92 672.698 1445.01 672.149 1445.01 671.51C1445.01 670.871 1444.92 670.317 1444.74 669.848C1444.56 669.375 1444.3 669.008 1443.96 668.747C1443.62 668.487 1443.21 668.357 1442.72 668.357C1442.22 668.357 1441.8 668.491 1441.46 668.761C1441.12 669.027 1440.86 669.396 1440.69 669.869C1440.51 670.343 1440.43 670.89 1440.43 671.51C1440.43 672.14 1440.51 672.684 1440.69 673.143C1440.87 673.598 1441.13 673.951 1441.46 674.202C1441.8 674.448 1442.22 674.571 1442.72 674.571ZM1450.4 677V666.091H1453.42V677H1450.4ZM1451.92 664.685C1451.47 664.685 1451.08 664.536 1450.76 664.237C1450.44 663.934 1450.28 663.572 1450.28 663.151C1450.28 662.734 1450.44 662.376 1450.76 662.078C1451.08 661.775 1451.47 661.624 1451.92 661.624C1452.37 661.624 1452.75 661.775 1453.07 662.078C1453.39 662.376 1453.55 662.734 1453.55 663.151C1453.55 663.572 1453.39 663.934 1453.07 664.237C1452.75 664.536 1452.37 664.685 1451.92 664.685ZM1458.87 670.693V677H1455.85V666.091H1458.73V668.016H1458.86C1459.1 667.381 1459.5 666.879 1460.07 666.51C1460.64 666.136 1461.33 665.949 1462.14 665.949C1462.9 665.949 1463.56 666.115 1464.12 666.446C1464.68 666.777 1465.12 667.251 1465.43 667.866C1465.75 668.477 1465.9 669.206 1465.9 670.054V677H1462.88V670.594C1462.88 669.926 1462.71 669.405 1462.37 669.031C1462.02 668.652 1461.54 668.463 1460.94 668.463C1460.53 668.463 1460.17 668.551 1459.86 668.726C1459.55 668.901 1459.31 669.157 1459.13 669.493C1458.96 669.824 1458.88 670.224 1458.87 670.693Z" fill="#323232"/>
<path d="M1411.39 798.638C1411.33 798.065 1411.09 797.62 1410.66 797.303C1410.23 796.985 1409.64 796.827 1408.91 796.827C1408.4 796.827 1407.98 796.898 1407.63 797.04C1407.29 797.177 1407.02 797.369 1406.84 797.615C1406.66 797.861 1406.57 798.141 1406.57 798.453C1406.56 798.714 1406.61 798.941 1406.73 799.135C1406.86 799.329 1407.02 799.497 1407.24 799.639C1407.45 799.777 1407.7 799.897 1407.97 800.001C1408.25 800.101 1408.55 800.186 1408.87 800.257L1410.18 800.57C1410.81 800.712 1411.39 800.901 1411.92 801.138C1412.45 801.375 1412.91 801.666 1413.3 802.011C1413.69 802.357 1413.99 802.764 1414.2 803.233C1414.42 803.702 1414.53 804.239 1414.54 804.845C1414.53 805.735 1414.31 806.507 1413.86 807.161C1413.41 807.809 1412.77 808.313 1411.92 808.673C1411.09 809.028 1410.07 809.206 1408.89 809.206C1407.72 809.206 1406.69 809.026 1405.82 808.666C1404.96 808.306 1404.28 807.774 1403.79 807.068C1403.31 806.358 1403.06 805.48 1403.03 804.433H1406.01C1406.04 804.921 1406.18 805.328 1406.43 805.655C1406.68 805.977 1407.01 806.221 1407.43 806.386C1407.85 806.547 1408.33 806.628 1408.86 806.628C1409.38 806.628 1409.83 806.552 1410.21 806.401C1410.6 806.249 1410.9 806.038 1411.11 805.768C1411.33 805.499 1411.43 805.188 1411.43 804.838C1411.43 804.511 1411.34 804.237 1411.14 804.014C1410.95 803.792 1410.67 803.602 1410.3 803.446C1409.94 803.29 1409.49 803.148 1408.96 803.02L1407.38 802.622C1406.15 802.324 1405.18 801.857 1404.47 801.223C1403.76 800.589 1403.41 799.734 1403.42 798.659C1403.41 797.778 1403.64 797.009 1404.12 796.351C1404.6 795.693 1405.25 795.179 1406.09 794.81C1406.92 794.44 1407.87 794.256 1408.93 794.256C1410.01 794.256 1410.95 794.44 1411.75 794.81C1412.56 795.179 1413.19 795.693 1413.64 796.351C1414.09 797.009 1414.32 797.771 1414.34 798.638H1411.39ZM1416.55 809V798.091H1419.57V809H1416.55ZM1418.07 796.685C1417.62 796.685 1417.23 796.536 1416.91 796.237C1416.59 795.934 1416.44 795.572 1416.44 795.151C1416.44 794.734 1416.59 794.376 1416.91 794.078C1417.23 793.775 1417.62 793.624 1418.07 793.624C1418.52 793.624 1418.9 793.775 1419.22 794.078C1419.54 794.376 1419.7 794.734 1419.7 795.151C1419.7 795.572 1419.54 795.934 1419.22 796.237C1418.9 796.536 1418.52 796.685 1418.07 796.685ZM1426.91 813.318C1425.93 813.318 1425.09 813.183 1424.39 812.913C1423.7 812.648 1423.14 812.286 1422.73 811.827C1422.32 811.367 1422.05 810.851 1421.93 810.278L1424.73 809.902C1424.81 810.12 1424.95 810.323 1425.13 810.513C1425.32 810.702 1425.56 810.854 1425.86 810.967C1426.17 811.086 1426.54 811.145 1426.98 811.145C1427.64 811.145 1428.18 810.984 1428.61 810.662C1429.04 810.345 1429.26 809.812 1429.26 809.064V807.068H1429.13C1429 807.371 1428.8 807.658 1428.53 807.928C1428.27 808.197 1427.93 808.418 1427.51 808.588C1427.09 808.759 1426.6 808.844 1426.02 808.844C1425.2 808.844 1424.45 808.654 1423.78 808.276C1423.11 807.892 1422.58 807.307 1422.18 806.521C1421.79 805.731 1421.59 804.732 1421.59 803.524C1421.59 802.288 1421.79 801.256 1422.2 800.428C1422.6 799.599 1423.13 798.979 1423.8 798.567C1424.47 798.155 1425.21 797.949 1426.01 797.949C1426.62 797.949 1427.13 798.053 1427.55 798.261C1427.96 798.465 1428.29 798.721 1428.54 799.028C1428.8 799.331 1428.99 799.63 1429.13 799.923H1429.24V798.091H1432.25V809.107C1432.25 810.035 1432.02 810.811 1431.57 811.436C1431.11 812.061 1430.48 812.53 1429.68 812.842C1428.88 813.16 1427.95 813.318 1426.91 813.318ZM1426.98 806.571C1427.46 806.571 1427.88 806.45 1428.21 806.209C1428.55 805.963 1428.81 805.612 1428.99 805.158C1429.18 804.698 1429.27 804.149 1429.27 803.51C1429.27 802.871 1429.18 802.317 1429 801.848C1428.82 801.375 1428.56 801.008 1428.22 800.747C1427.88 800.487 1427.46 800.357 1426.98 800.357C1426.48 800.357 1426.06 800.491 1425.72 800.761C1425.38 801.027 1425.12 801.396 1424.95 801.869C1424.77 802.343 1424.68 802.89 1424.68 803.51C1424.68 804.14 1424.77 804.684 1424.95 805.143C1425.13 805.598 1425.38 805.951 1425.72 806.202C1426.06 806.448 1426.48 806.571 1426.98 806.571ZM1437.68 802.693V809H1434.65V798.091H1437.54V800.016H1437.67C1437.91 799.381 1438.31 798.879 1438.88 798.51C1439.45 798.136 1440.14 797.949 1440.95 797.949C1441.7 797.949 1442.37 798.115 1442.93 798.446C1443.49 798.777 1443.93 799.251 1444.24 799.866C1444.56 800.477 1444.71 801.206 1444.71 802.054V809H1441.69V802.594C1441.69 801.926 1441.52 801.405 1441.17 801.031C1440.83 800.652 1440.35 800.463 1439.75 800.463C1439.34 800.463 1438.98 800.551 1438.67 800.726C1438.36 800.901 1438.12 801.157 1437.94 801.493C1437.77 801.824 1437.68 802.224 1437.68 802.693ZM1460.77 794.455H1463.84V803.901C1463.84 804.961 1463.59 805.889 1463.08 806.685C1462.58 807.48 1461.88 808.1 1460.97 808.545C1460.07 808.986 1459.01 809.206 1457.81 809.206C1456.6 809.206 1455.55 808.986 1454.64 808.545C1453.74 808.1 1453.04 807.48 1452.53 806.685C1452.03 805.889 1451.78 804.961 1451.78 803.901V794.455H1454.86V803.638C1454.86 804.192 1454.98 804.684 1455.22 805.115C1455.47 805.546 1455.81 805.884 1456.26 806.131C1456.7 806.377 1457.22 806.5 1457.81 806.5C1458.41 806.5 1458.93 806.377 1459.37 806.131C1459.81 805.884 1460.16 805.546 1460.4 805.115C1460.64 804.684 1460.77 804.192 1460.77 803.638V794.455ZM1466.31 813.091V798.091H1469.3V799.923H1469.43C1469.57 799.63 1469.76 799.331 1470.01 799.028C1470.26 798.721 1470.6 798.465 1471 798.261C1471.41 798.053 1471.93 797.949 1472.54 797.949C1473.33 797.949 1474.07 798.157 1474.74 798.574C1475.41 798.986 1475.95 799.608 1476.35 800.442C1476.75 801.27 1476.95 802.31 1476.95 803.56C1476.95 804.777 1476.76 805.804 1476.36 806.642C1475.98 807.475 1475.45 808.107 1474.77 808.538C1474.11 808.964 1473.36 809.178 1472.53 809.178C1471.94 809.178 1471.44 809.08 1471.03 808.886C1470.62 808.692 1470.29 808.448 1470.03 808.155C1469.77 807.857 1469.57 807.556 1469.43 807.253H1469.34V813.091H1466.31ZM1469.28 803.545C1469.28 804.194 1469.37 804.76 1469.55 805.243C1469.73 805.726 1469.99 806.102 1470.33 806.372C1470.67 806.637 1471.08 806.77 1471.57 806.77C1472.06 806.77 1472.48 806.635 1472.82 806.365C1473.16 806.09 1473.42 805.712 1473.59 805.229C1473.77 804.741 1473.86 804.18 1473.86 803.545C1473.86 802.916 1473.78 802.362 1473.6 801.884C1473.43 801.405 1473.17 801.031 1472.83 800.761C1472.49 800.491 1472.07 800.357 1471.57 800.357C1471.08 800.357 1470.66 800.487 1470.32 800.747C1469.98 801.008 1469.73 801.377 1469.55 801.855C1469.37 802.333 1469.28 802.897 1469.28 803.545Z" fill="#D9D9D9"/>
<path d="M1231.41 600V588.364H1238.39V589.614H1232.82V593.545H1237.86V594.795H1232.82V600H1231.41ZM1243.52 600.182C1242.73 600.182 1242.04 599.994 1241.45 599.619C1240.86 599.244 1240.4 598.72 1240.06 598.045C1239.73 597.371 1239.57 596.583 1239.57 595.682C1239.57 594.773 1239.73 593.979 1240.06 593.301C1240.4 592.623 1240.86 592.097 1241.45 591.722C1242.04 591.347 1242.73 591.159 1243.52 591.159C1244.31 591.159 1245 591.347 1245.59 591.722C1246.19 592.097 1246.65 592.623 1246.98 593.301C1247.31 593.979 1247.48 594.773 1247.48 595.682C1247.48 596.583 1247.31 597.371 1246.98 598.045C1246.65 598.72 1246.19 599.244 1245.59 599.619C1245 599.994 1244.31 600.182 1243.52 600.182ZM1243.52 598.977C1244.12 598.977 1244.61 598.824 1245 598.517C1245.39 598.21 1245.67 597.807 1245.86 597.307C1246.04 596.807 1246.14 596.265 1246.14 595.682C1246.14 595.098 1246.04 594.555 1245.86 594.051C1245.67 593.547 1245.39 593.14 1245 592.83C1244.61 592.519 1244.12 592.364 1243.52 592.364C1242.92 592.364 1242.43 592.519 1242.05 592.83C1241.66 593.14 1241.37 593.547 1241.19 594.051C1241 594.555 1240.91 595.098 1240.91 595.682C1240.91 596.265 1241 596.807 1241.19 597.307C1241.37 597.807 1241.66 598.21 1242.05 598.517C1242.43 598.824 1242.92 598.977 1243.52 598.977ZM1249.52 600V591.273H1250.82V592.591H1250.91C1251.07 592.159 1251.36 591.809 1251.77 591.54C1252.19 591.271 1252.66 591.136 1253.18 591.136C1253.28 591.136 1253.4 591.138 1253.55 591.142C1253.7 591.146 1253.81 591.152 1253.89 591.159V592.523C1253.84 592.511 1253.74 592.494 1253.58 592.472C1253.42 592.445 1253.25 592.432 1253.07 592.432C1252.65 592.432 1252.27 592.521 1251.93 592.699C1251.6 592.873 1251.34 593.116 1251.15 593.426C1250.96 593.733 1250.87 594.083 1250.87 594.477V600H1249.52ZM1258.73 603.455C1258.09 603.455 1257.53 603.371 1257.06 603.205C1256.6 603.042 1256.21 602.826 1255.9 602.557C1255.59 602.292 1255.35 602.008 1255.17 601.705L1256.23 600.955C1256.36 601.114 1256.51 601.295 1256.69 601.5C1256.88 601.708 1257.13 601.888 1257.46 602.04C1257.78 602.195 1258.21 602.273 1258.73 602.273C1259.44 602.273 1260.02 602.102 1260.48 601.761C1260.94 601.42 1261.17 600.886 1261.17 600.159V598.386H1261.05C1260.95 598.545 1260.81 598.742 1260.63 598.977C1260.45 599.208 1260.2 599.415 1259.86 599.597C1259.53 599.775 1259.08 599.864 1258.51 599.864C1257.8 599.864 1257.17 599.697 1256.61 599.364C1256.05 599.03 1255.61 598.545 1255.29 597.909C1254.96 597.273 1254.8 596.5 1254.8 595.591C1254.8 594.697 1254.96 593.919 1255.27 593.256C1255.59 592.589 1256.03 592.074 1256.59 591.71C1257.15 591.343 1257.79 591.159 1258.53 591.159C1259.1 591.159 1259.55 591.254 1259.88 591.443C1260.22 591.629 1260.48 591.841 1260.65 592.08C1260.84 592.314 1260.98 592.508 1261.08 592.659H1261.21V591.273H1262.51V600.25C1262.51 601 1262.34 601.61 1262 602.08C1261.66 602.553 1261.2 602.9 1260.63 603.119C1260.06 603.343 1259.43 603.455 1258.73 603.455ZM1258.69 598.659C1259.23 598.659 1259.68 598.536 1260.05 598.29C1260.42 598.044 1260.71 597.689 1260.9 597.227C1261.09 596.765 1261.19 596.212 1261.19 595.568C1261.19 594.939 1261.09 594.384 1260.9 593.903C1260.72 593.422 1260.44 593.045 1260.06 592.773C1259.69 592.5 1259.23 592.364 1258.69 592.364C1258.12 592.364 1257.65 592.508 1257.27 592.795C1256.89 593.083 1256.61 593.47 1256.42 593.955C1256.24 594.439 1256.14 594.977 1256.14 595.568C1256.14 596.174 1256.24 596.71 1256.43 597.176C1256.62 597.638 1256.9 598.002 1257.28 598.267C1257.66 598.528 1258.13 598.659 1258.69 598.659ZM1268.51 600.182C1267.72 600.182 1267.03 599.994 1266.43 599.619C1265.84 599.244 1265.38 598.72 1265.05 598.045C1264.72 597.371 1264.55 596.583 1264.55 595.682C1264.55 594.773 1264.72 593.979 1265.05 593.301C1265.38 592.623 1265.84 592.097 1266.43 591.722C1267.03 591.347 1267.72 591.159 1268.51 591.159C1269.29 591.159 1269.98 591.347 1270.58 591.722C1271.17 592.097 1271.63 592.623 1271.96 593.301C1272.29 593.979 1272.46 594.773 1272.46 595.682C1272.46 596.583 1272.29 597.371 1271.96 598.045C1271.63 598.72 1271.17 599.244 1270.58 599.619C1269.98 599.994 1269.29 600.182 1268.51 600.182ZM1268.51 598.977C1269.11 598.977 1269.6 598.824 1269.98 598.517C1270.37 598.21 1270.66 597.807 1270.84 597.307C1271.03 596.807 1271.12 596.265 1271.12 595.682C1271.12 595.098 1271.03 594.555 1270.84 594.051C1270.66 593.547 1270.37 593.14 1269.98 592.83C1269.6 592.519 1269.11 592.364 1268.51 592.364C1267.91 592.364 1267.42 592.519 1267.03 592.83C1266.64 593.14 1266.36 593.547 1266.17 594.051C1265.99 594.555 1265.89 595.098 1265.89 595.682C1265.89 596.265 1265.99 596.807 1266.17 597.307C1266.36 597.807 1266.64 598.21 1267.03 598.517C1267.42 598.824 1267.91 598.977 1268.51 598.977ZM1278.3 591.273V592.409H1273.78V591.273H1278.3ZM1275.1 589.182H1276.44V597.5C1276.44 597.879 1276.5 598.163 1276.61 598.352C1276.72 598.538 1276.86 598.663 1277.04 598.727C1277.21 598.788 1277.4 598.818 1277.6 598.818C1277.75 598.818 1277.87 598.811 1277.96 598.795C1278.06 598.777 1278.13 598.761 1278.19 598.75L1278.46 599.955C1278.37 599.989 1278.25 600.023 1278.08 600.057C1277.92 600.095 1277.71 600.114 1277.46 600.114C1277.08 600.114 1276.71 600.032 1276.35 599.869C1275.99 599.706 1275.69 599.458 1275.45 599.125C1275.22 598.792 1275.1 598.371 1275.1 597.864V589.182ZM1284.82 603.273V591.273H1286.12V592.659H1286.28C1286.37 592.508 1286.51 592.314 1286.68 592.08C1286.86 591.841 1287.12 591.629 1287.45 591.443C1287.78 591.254 1288.23 591.159 1288.8 591.159C1289.53 591.159 1290.18 591.343 1290.74 591.71C1291.3 592.078 1291.74 592.598 1292.05 593.273C1292.37 593.947 1292.53 594.742 1292.53 595.659C1292.53 596.583 1292.37 597.384 1292.05 598.062C1291.74 598.737 1291.3 599.259 1290.75 599.631C1290.19 599.998 1289.55 600.182 1288.82 600.182C1288.26 600.182 1287.81 600.089 1287.47 599.903C1287.14 599.714 1286.88 599.5 1286.7 599.261C1286.51 599.019 1286.37 598.818 1286.28 598.659H1286.16V603.273H1284.82ZM1286.14 595.636C1286.14 596.295 1286.24 596.877 1286.43 597.381C1286.62 597.881 1286.9 598.273 1287.28 598.557C1287.65 598.837 1288.1 598.977 1288.64 598.977C1289.2 598.977 1289.67 598.83 1290.04 598.534C1290.42 598.235 1290.71 597.833 1290.89 597.33C1291.09 596.822 1291.18 596.258 1291.18 595.636C1291.18 595.023 1291.09 594.47 1290.9 593.977C1290.71 593.481 1290.43 593.089 1290.05 592.801C1289.68 592.509 1289.21 592.364 1288.64 592.364C1288.09 592.364 1287.64 592.502 1287.26 592.778C1286.89 593.051 1286.61 593.434 1286.42 593.926C1286.23 594.415 1286.14 594.985 1286.14 595.636ZM1297.14 600.205C1296.59 600.205 1296.08 600.1 1295.63 599.892C1295.18 599.68 1294.82 599.375 1294.56 598.977C1294.29 598.576 1294.16 598.091 1294.16 597.523C1294.16 597.023 1294.26 596.617 1294.46 596.307C1294.65 595.992 1294.92 595.746 1295.25 595.568C1295.58 595.39 1295.94 595.258 1296.34 595.17C1296.74 595.08 1297.14 595.008 1297.55 594.955C1298.08 594.886 1298.51 594.835 1298.84 594.801C1299.17 594.763 1299.41 594.701 1299.57 594.614C1299.72 594.527 1299.8 594.375 1299.8 594.159V594.114C1299.8 593.553 1299.64 593.117 1299.34 592.807C1299.04 592.496 1298.57 592.341 1297.96 592.341C1297.32 592.341 1296.82 592.481 1296.45 592.761C1296.09 593.042 1295.83 593.341 1295.68 593.659L1294.41 593.205C1294.64 592.674 1294.94 592.261 1295.32 591.966C1295.7 591.667 1296.12 591.458 1296.57 591.341C1297.03 591.22 1297.47 591.159 1297.91 591.159C1298.19 591.159 1298.51 591.193 1298.88 591.261C1299.25 591.326 1299.6 591.46 1299.94 591.665C1300.29 591.869 1300.57 592.178 1300.8 592.591C1301.03 593.004 1301.14 593.557 1301.14 594.25V600H1299.8V598.818H1299.73C1299.64 599.008 1299.49 599.21 1299.28 599.426C1299.06 599.642 1298.78 599.826 1298.43 599.977C1298.08 600.129 1297.65 600.205 1297.14 600.205ZM1297.34 599C1297.87 599 1298.32 598.896 1298.68 598.688C1299.05 598.479 1299.33 598.21 1299.51 597.881C1299.7 597.551 1299.8 597.205 1299.8 596.841V595.614C1299.74 595.682 1299.62 595.744 1299.42 595.801C1299.23 595.854 1299.01 595.902 1298.76 595.943C1298.52 595.981 1298.28 596.015 1298.04 596.045C1297.81 596.072 1297.62 596.095 1297.48 596.114C1297.13 596.159 1296.81 596.233 1296.5 596.335C1296.2 596.434 1295.96 596.583 1295.78 596.784C1295.59 596.981 1295.5 597.25 1295.5 597.591C1295.5 598.057 1295.68 598.409 1296.02 598.648C1296.37 598.883 1296.81 599 1297.34 599ZM1309.77 593.227L1308.56 593.568C1308.49 593.367 1308.38 593.172 1308.23 592.983C1308.08 592.79 1307.89 592.631 1307.64 592.506C1307.39 592.381 1307.07 592.318 1306.68 592.318C1306.14 592.318 1305.7 592.441 1305.34 592.688C1304.99 592.93 1304.81 593.239 1304.81 593.614C1304.81 593.947 1304.94 594.21 1305.18 594.403C1305.42 594.597 1305.8 594.758 1306.31 594.886L1307.61 595.205C1308.39 595.394 1308.97 595.684 1309.35 596.074C1309.74 596.46 1309.93 596.958 1309.93 597.568C1309.93 598.068 1309.78 598.515 1309.5 598.909C1309.21 599.303 1308.81 599.614 1308.3 599.841C1307.79 600.068 1307.2 600.182 1306.52 600.182C1305.63 600.182 1304.89 599.989 1304.31 599.602C1303.72 599.216 1303.36 598.652 1303.2 597.909L1304.47 597.591C1304.59 598.061 1304.82 598.413 1305.16 598.648C1305.5 598.883 1305.95 599 1306.5 599C1307.12 599 1307.62 598.867 1307.98 598.602C1308.36 598.333 1308.54 598.011 1308.54 597.636C1308.54 597.333 1308.44 597.08 1308.22 596.875C1308.01 596.667 1307.69 596.511 1307.25 596.409L1305.79 596.068C1304.99 595.879 1304.4 595.585 1304.03 595.188C1303.66 594.786 1303.47 594.284 1303.47 593.682C1303.47 593.189 1303.61 592.754 1303.89 592.375C1304.17 591.996 1304.55 591.699 1305.03 591.483C1305.51 591.267 1306.06 591.159 1306.68 591.159C1307.54 591.159 1308.22 591.348 1308.71 591.727C1309.21 592.106 1309.56 592.606 1309.77 593.227ZM1318.13 593.227L1316.92 593.568C1316.85 593.367 1316.74 593.172 1316.59 592.983C1316.44 592.79 1316.25 592.631 1316 592.506C1315.75 592.381 1315.43 592.318 1315.04 592.318C1314.5 592.318 1314.06 592.441 1313.7 592.688C1313.35 592.93 1313.17 593.239 1313.17 593.614C1313.17 593.947 1313.29 594.21 1313.54 594.403C1313.78 594.597 1314.16 594.758 1314.67 594.886L1315.97 595.205C1316.75 595.394 1317.33 595.684 1317.71 596.074C1318.1 596.46 1318.29 596.958 1318.29 597.568C1318.29 598.068 1318.14 598.515 1317.86 598.909C1317.57 599.303 1317.17 599.614 1316.66 599.841C1316.15 600.068 1315.56 600.182 1314.88 600.182C1313.99 600.182 1313.25 599.989 1312.67 599.602C1312.08 599.216 1311.71 598.652 1311.56 597.909L1312.83 597.591C1312.95 598.061 1313.18 598.413 1313.52 598.648C1313.86 598.883 1314.31 599 1314.86 599C1315.48 599 1315.98 598.867 1316.34 598.602C1316.71 598.333 1316.9 598.011 1316.9 597.636C1316.9 597.333 1316.79 597.08 1316.58 596.875C1316.37 596.667 1316.04 596.511 1315.61 596.409L1314.15 596.068C1313.35 595.879 1312.76 595.585 1312.39 595.188C1312.02 594.786 1311.83 594.284 1311.83 593.682C1311.83 593.189 1311.97 592.754 1312.25 592.375C1312.53 591.996 1312.91 591.699 1313.39 591.483C1313.87 591.267 1314.42 591.159 1315.04 591.159C1315.9 591.159 1316.58 591.348 1317.07 591.727C1317.57 592.106 1317.92 592.606 1318.13 593.227ZM1322.28 600L1319.62 591.273H1321.03L1322.92 597.955H1323.01L1324.87 591.273H1326.31L1328.15 597.932H1328.24L1330.12 591.273H1331.53L1328.87 600H1327.56L1325.65 593.295H1325.51L1323.6 600H1322.28ZM1336.55 600.182C1335.77 600.182 1335.07 599.994 1334.48 599.619C1333.89 599.244 1333.43 598.72 1333.09 598.045C1332.76 597.371 1332.6 596.583 1332.6 595.682C1332.6 594.773 1332.76 593.979 1333.09 593.301C1333.43 592.623 1333.89 592.097 1334.48 591.722C1335.07 591.347 1335.77 591.159 1336.55 591.159C1337.34 591.159 1338.03 591.347 1338.62 591.722C1339.22 592.097 1339.68 592.623 1340.01 593.301C1340.34 593.979 1340.51 594.773 1340.51 595.682C1340.51 596.583 1340.34 597.371 1340.01 598.045C1339.68 598.72 1339.22 599.244 1338.62 599.619C1338.03 599.994 1337.34 600.182 1336.55 600.182ZM1336.55 598.977C1337.15 598.977 1337.64 598.824 1338.03 598.517C1338.42 598.21 1338.7 597.807 1338.89 597.307C1339.07 596.807 1339.17 596.265 1339.17 595.682C1339.17 595.098 1339.07 594.555 1338.89 594.051C1338.7 593.547 1338.42 593.14 1338.03 592.83C1337.64 592.519 1337.15 592.364 1336.55 592.364C1335.96 592.364 1335.46 592.519 1335.08 592.83C1334.69 593.14 1334.4 593.547 1334.22 594.051C1334.03 594.555 1333.94 595.098 1333.94 595.682C1333.94 596.265 1334.03 596.807 1334.22 597.307C1334.4 597.807 1334.69 598.21 1335.08 598.517C1335.46 598.824 1335.96 598.977 1336.55 598.977ZM1342.56 600V591.273H1343.85V592.591H1343.94C1344.1 592.159 1344.39 591.809 1344.81 591.54C1345.22 591.271 1345.69 591.136 1346.21 591.136C1346.31 591.136 1346.44 591.138 1346.58 591.142C1346.73 591.146 1346.84 591.152 1346.92 591.159V592.523C1346.87 592.511 1346.77 592.494 1346.61 592.472C1346.45 592.445 1346.28 592.432 1346.1 592.432C1345.68 592.432 1345.3 592.521 1344.96 592.699C1344.63 592.873 1344.37 593.116 1344.18 593.426C1343.99 593.733 1343.9 594.083 1343.9 594.477V600H1342.56ZM1351.54 600.182C1350.81 600.182 1350.17 599.998 1349.61 599.631C1349.06 599.259 1348.62 598.737 1348.31 598.062C1347.99 597.384 1347.83 596.583 1347.83 595.659C1347.83 594.742 1347.99 593.947 1348.31 593.273C1348.62 592.598 1349.06 592.078 1349.62 591.71C1350.18 591.343 1350.83 591.159 1351.56 591.159C1352.13 591.159 1352.58 591.254 1352.91 591.443C1353.24 591.629 1353.49 591.841 1353.67 592.08C1353.85 592.314 1353.99 592.508 1354.08 592.659H1354.2V588.364H1355.54V600H1354.24V598.659H1354.08C1353.99 598.818 1353.85 599.019 1353.66 599.261C1353.48 599.5 1353.22 599.714 1352.88 599.903C1352.55 600.089 1352.1 600.182 1351.54 600.182ZM1351.72 598.977C1352.26 598.977 1352.71 598.837 1353.08 598.557C1353.46 598.273 1353.74 597.881 1353.93 597.381C1354.12 596.877 1354.22 596.295 1354.22 595.636C1354.22 594.985 1354.13 594.415 1353.94 593.926C1353.75 593.434 1353.47 593.051 1353.1 592.778C1352.72 592.502 1352.27 592.364 1351.72 592.364C1351.15 592.364 1350.68 592.509 1350.3 592.801C1349.92 593.089 1349.64 593.481 1349.45 593.977C1349.27 594.47 1349.17 595.023 1349.17 595.636C1349.17 596.258 1349.27 596.822 1349.46 597.33C1349.65 597.833 1349.94 598.235 1350.31 598.534C1350.69 598.83 1351.16 598.977 1351.72 598.977Z" fill="#D9D9D9"/>
<path d="M1230 603.182H1255.91V604.273H1230V603.182ZM1261.55 603.182H1283.73V604.273H1261.55V603.182ZM1287.25 603.182H1356.95V604.273H1287.25V603.182Z" fill="#D9D9D9"/>
<rect x="1484" y="735" width="190" height="2" fill="#D9D9D9"/>
<rect x="1210" y="735" width="186" height="2" fill="#D9D9D9"/>
<g clip-path="url(#clip2_22_29)">
<path d="M1641.92 545.92C1639.64 547.657 1636.87 548.62 1634 548.667C1624.67 548.667 1619.33 538 1619.33 538C1620.99 534.909 1623.29 532.209 1626.08 530.08M1631.2 527.653C1632.12 527.438 1633.06 527.331 1634 527.333C1643.33 527.333 1648.67 538 1648.67 538C1647.86 539.514 1646.89 540.94 1645.79 542.253M1636.83 540.827C1636.46 541.22 1636.02 541.535 1635.53 541.753C1635.04 541.972 1634.51 542.09 1633.97 542.099C1633.43 542.109 1632.9 542.01 1632.4 541.809C1631.9 541.607 1631.45 541.308 1631.07 540.928C1630.69 540.548 1630.39 540.096 1630.19 539.598C1629.99 539.1 1629.89 538.566 1629.9 538.029C1629.91 537.492 1630.03 536.962 1630.25 536.472C1630.47 535.981 1630.78 535.54 1631.17 535.173M1619.33 523.333L1648.67 552.667" stroke="#D9D9D9" stroke-width="3" stroke-linecap="round" stroke-linejoin="round"/>
</g>
<g filter="url(#filter2_f_22_29)">
<path d="M2062 1080C2284.57 1080 2465 838.234 2465 540C2465 241.766 2284.57 -1.30342e-06 2062 -8.3968e-07C1839.43 -3.75938e-07 1659 59.8944 1659 540C1659 1020.11 1839.43 1080 2062 1080Z" fill="#2F2F2F"/>
</g>
<g filter="url(#filter3_f_22_29)">
<path d="M2062 948.442C2230.54 948.442 2367.17 765.576 2367.17 540C2367.17 314.424 2230.54 131.558 2062 131.558C1893.46 131.558 1756.83 176.861 1756.83 540C1756.83 903.139 1893.46 948.442 2062 948.442Z" fill="#BCBCBC"/>
</g>
<g filter="url(#filter4_f_22_29)">
<path d="M2062 774.816C2158.77 774.816 2237.22 669.685 2237.22 540C2237.22 410.315 2158.77 305.184 2062 305.184C1965.23 305.184 1886.78 331.229 1886.78 540C1886.78 748.771 1965.23 774.816 2062 774.816Z" fill="white"/>
</g>
</g>
<defs>
<filter id="filter0_f_22_29" x="212.9" y="272.9" width="534.2" height="534.2" filterUnits="userSpaceOnUse" color-interpolation-filters="sRGB">
<feFlood flood-opacity="0" result="BackgroundImageFix"/>
<feBlend mode="normal" in="SourceGraphic" in2="BackgroundImageFix" result="shape"/>
<feGaussianBlur stdDeviation="11.05" result="effect1_foregroundBlur_22_29"/>
</filter>
<filter id="filter1_f_22_29" x="1187.9" y="611.9" width="504.2" height="116.2" filterUnits="userSpaceOnUse" color-interpolation-filters="sRGB">
<feFlood flood-opacity="0" result="BackgroundImageFix"/>
<feBlend mode="normal" in="SourceGraphic" in2="BackgroundImageFix" result="shape"/>
<feGaussianBlur stdDeviation="11.05" result="effect1_foregroundBlur_22_29"/>
</filter>
<filter id="filter2_f_22_29" x="1509" y="-150" width="1106" height="1380" filterUnits="userSpaceOnUse" color-interpolation-filters="sRGB">
<feFlood flood-opacity="0" result="BackgroundImageFix"/>
<feBlend mode="normal" in="SourceGraphic" in2="BackgroundImageFix" result="shape"/>
<feGaussianBlur stdDeviation="75" result="effect1_foregroundBlur_22_29"/>
</filter>
<filter id="filter3_f_22_29" x="1606.83" y="-18.4419" width="910.34" height="1116.88" filterUnits="userSpaceOnUse" color-interpolation-filters="sRGB">
<feFlood flood-opacity="0" result="BackgroundImageFix"/>
<feBlend mode="normal" in="SourceGraphic" in2="BackgroundImageFix" result="shape"/>
<feGaussianBlur stdDeviation="75" result="effect1_foregroundBlur_22_29"/>
</filter>
<filter id="filter4_f_22_29" x="1736.78" y="155.184" width="650.435" height="769.632" filterUnits="userSpaceOnUse" color-interpolation-filters="sRGB">
<feFlood flood-opacity="0" result="BackgroundImageFix"/>
<feBlend mode="normal" in="SourceGraphic" in2="BackgroundImageFix" result="shape"/>
<feGaussianBlur stdDeviation="75" result="effect1_foregroundBlur_22_29"/>
</filter>
<clipPath id="clip0_22_29">
<rect width="1920" height="1080" fill="white"/>
</clipPath>
<clipPath id="clip1_22_29">
<rect width="490" height="490" fill="white" transform="translate(235 295)"/>
</clipPath>
<clipPath id="clip2_22_29">
<rect width="32" height="32" fill="white" transform="translate(1618 522)"/>
</clipPath>
</defs>
</svg>
