<svg width="1920" height="1080" viewBox="0 0 1920 1080" fill="none" xmlns="http://www.w3.org/2000/svg">
<g clip-path="url(#clip0_26_77)">
<rect width="1920" height="1080" fill="#0C0C0C"/>
<g filter="url(#filter0_f_26_77)">
<path d="M1685 540C1685 675.31 1575.31 785 1440 785C1304.69 785 1195 675.31 1195 540C1195 404.69 1304.69 295 1440 295C1575.31 295 1685 404.69 1685 540ZM1313.63 540C1313.63 609.793 1370.21 666.372 1440 666.372C1509.79 666.372 1566.37 609.793 1566.37 540C1566.37 470.207 1509.79 413.628 1440 413.628C1370.21 413.628 1313.63 470.207 1313.63 540Z" fill="white"/>
</g>
<g clip-path="url(#clip1_26_77)">
<path d="M1685 540.009C1685.01 555.263 1683.6 570.485 1680.78 585.477C1651.89 670.349 1571.5 731.389 1476.86 731.389C1381.69 731.389 1304.55 654.247 1304.55 559.08C1304.51 532.488 1312.2 506.457 1326.69 484.159C1318.12 501.526 1313.67 520.64 1313.7 540.009C1313.7 609.765 1370.25 666.306 1440 666.306C1491.51 666.306 1535.83 635.466 1555.47 591.237C1568.42 569.783 1575.25 545.189 1575.21 520.129C1575.21 424.962 1498.07 347.82 1402.9 347.82C1309.23 347.82 1229.52 407.621 1199.88 491.132C1222.53 379.229 1321.43 295 1440 295C1575.31 295 1685 404.691 1685 540.009Z" fill="#F6F6F6"/>
<path d="M1680.8 585.477C1659.5 699.058 1559.79 785.017 1440.01 785.017C1304.71 785.017 1195.02 675.327 1195.02 540.022C1195 523.604 1196.63 507.226 1199.88 491.132C1229.52 407.621 1309.22 347.82 1402.9 347.82C1498.06 347.82 1575.2 424.962 1575.2 520.129C1575.25 545.189 1568.42 569.783 1555.47 591.237C1562.63 575.108 1566.31 557.655 1566.29 540.009C1566.29 470.252 1509.75 413.711 1439.99 413.711C1390.29 413.711 1347.3 442.403 1326.69 484.159C1312.2 506.457 1304.51 532.488 1304.55 559.08C1304.55 654.247 1381.69 731.389 1476.86 731.389C1571.5 731.389 1651.89 670.349 1680.8 585.477Z" fill="#BCBCBC"/>
</g>
<path d="M387.739 253.131C387.602 251.756 387.017 250.687 385.983 249.926C384.949 249.165 383.546 248.784 381.773 248.784C380.568 248.784 379.551 248.955 378.722 249.295C377.892 249.625 377.256 250.085 376.813 250.676C376.381 251.267 376.165 251.938 376.165 252.688C376.142 253.312 376.273 253.858 376.557 254.324C376.852 254.79 377.256 255.193 377.767 255.534C378.279 255.864 378.869 256.153 379.54 256.403C380.21 256.642 380.926 256.847 381.688 257.017L384.824 257.767C386.347 258.108 387.744 258.562 389.017 259.131C390.29 259.699 391.392 260.398 392.324 261.227C393.256 262.057 393.977 263.034 394.489 264.159C395.012 265.284 395.279 266.574 395.29 268.028C395.279 270.165 394.733 272.017 393.654 273.585C392.585 275.142 391.04 276.352 389.017 277.216C387.006 278.068 384.58 278.494 381.739 278.494C378.921 278.494 376.466 278.062 374.375 277.199C372.296 276.335 370.671 275.057 369.5 273.364C368.341 271.659 367.733 269.551 367.676 267.04H374.818C374.898 268.21 375.233 269.187 375.824 269.972C376.426 270.744 377.227 271.33 378.227 271.727C379.239 272.114 380.381 272.307 381.654 272.307C382.904 272.307 383.989 272.125 384.909 271.761C385.841 271.398 386.563 270.892 387.074 270.244C387.585 269.597 387.841 268.852 387.841 268.011C387.841 267.227 387.608 266.568 387.142 266.034C386.688 265.5 386.017 265.045 385.131 264.67C384.256 264.295 383.182 263.955 381.909 263.648L378.108 262.693C375.165 261.977 372.841 260.858 371.137 259.335C369.432 257.812 368.585 255.761 368.597 253.182C368.585 251.068 369.148 249.222 370.284 247.642C371.432 246.062 373.006 244.83 375.006 243.943C377.006 243.057 379.279 242.614 381.824 242.614C384.415 242.614 386.676 243.057 388.608 243.943C390.551 244.83 392.063 246.062 393.142 247.642C394.222 249.222 394.779 251.051 394.813 253.131H387.739ZM407.318 278V251.818H414.579V278H407.318ZM410.966 248.443C409.886 248.443 408.96 248.085 408.187 247.369C407.426 246.642 407.045 245.773 407.045 244.761C407.045 243.761 407.426 242.903 408.187 242.188C408.96 241.46 409.886 241.097 410.966 241.097C412.045 241.097 412.966 241.46 413.727 242.188C414.5 242.903 414.886 243.761 414.886 244.761C414.886 245.773 414.5 246.642 413.727 247.369C412.966 248.085 412.045 248.443 410.966 248.443ZM439.392 288.364C437.039 288.364 435.022 288.04 433.34 287.392C431.67 286.756 430.34 285.886 429.352 284.784C428.363 283.682 427.721 282.443 427.426 281.068L434.142 280.165C434.346 280.688 434.67 281.176 435.113 281.631C435.556 282.085 436.142 282.449 436.869 282.722C437.608 283.006 438.505 283.148 439.562 283.148C441.142 283.148 442.443 282.761 443.465 281.989C444.5 281.227 445.017 279.949 445.017 278.153V273.364H444.71C444.392 274.091 443.914 274.778 443.278 275.426C442.642 276.074 441.823 276.602 440.823 277.011C439.823 277.42 438.63 277.625 437.244 277.625C435.278 277.625 433.488 277.17 431.875 276.261C430.272 275.341 428.994 273.937 428.039 272.051C427.096 270.153 426.625 267.756 426.625 264.858C426.625 261.892 427.108 259.415 428.073 257.426C429.039 255.437 430.323 253.949 431.926 252.96C433.539 251.972 435.306 251.477 437.227 251.477C438.693 251.477 439.92 251.727 440.909 252.227C441.897 252.716 442.693 253.33 443.295 254.068C443.909 254.795 444.38 255.511 444.71 256.216H444.983V251.818H452.193V278.256C452.193 280.483 451.647 282.347 450.556 283.847C449.465 285.347 447.954 286.472 446.022 287.222C444.102 287.983 441.892 288.364 439.392 288.364ZM439.545 272.17C440.715 272.17 441.704 271.881 442.511 271.301C443.329 270.71 443.954 269.869 444.386 268.778C444.829 267.676 445.051 266.358 445.051 264.824C445.051 263.29 444.835 261.96 444.403 260.835C443.971 259.699 443.346 258.818 442.528 258.193C441.71 257.568 440.715 257.256 439.545 257.256C438.352 257.256 437.346 257.58 436.528 258.227C435.71 258.864 435.09 259.75 434.67 260.886C434.25 262.023 434.039 263.335 434.039 264.824C434.039 266.335 434.25 267.642 434.67 268.744C435.102 269.835 435.721 270.682 436.528 271.284C437.346 271.875 438.352 272.17 439.545 272.17ZM472.433 262.864V278H465.171V251.818H472.092V256.438H472.398C472.978 254.915 473.95 253.71 475.313 252.824C476.677 251.926 478.33 251.477 480.273 251.477C482.092 251.477 483.677 251.875 485.029 252.67C486.381 253.466 487.433 254.602 488.183 256.08C488.933 257.545 489.308 259.295 489.308 261.33V278H482.046V262.625C482.058 261.023 481.648 259.773 480.819 258.875C479.989 257.966 478.847 257.511 477.393 257.511C476.415 257.511 475.552 257.722 474.802 258.142C474.063 258.562 473.484 259.176 473.063 259.983C472.654 260.778 472.444 261.739 472.433 262.864ZM542.239 243.091H549.619V265.761C549.619 268.307 549.012 270.534 547.796 272.443C546.591 274.352 544.904 275.841 542.733 276.909C540.563 277.966 538.034 278.494 535.148 278.494C532.25 278.494 529.716 277.966 527.546 276.909C525.375 275.841 523.688 274.352 522.483 272.443C521.279 270.534 520.676 268.307 520.676 265.761V243.091H528.057V265.131C528.057 266.46 528.347 267.642 528.926 268.676C529.517 269.71 530.347 270.523 531.415 271.114C532.483 271.705 533.727 272 535.148 272C536.58 272 537.824 271.705 538.881 271.114C539.949 270.523 540.773 269.71 541.352 268.676C541.943 267.642 542.239 266.46 542.239 265.131V243.091ZM562.756 287.818V251.818H569.915V256.216H570.239C570.557 255.511 571.017 254.795 571.619 254.068C572.233 253.33 573.028 252.716 574.006 252.227C574.994 251.727 576.221 251.477 577.687 251.477C579.596 251.477 581.358 251.977 582.971 252.977C584.585 253.966 585.875 255.46 586.841 257.46C587.807 259.449 588.29 261.943 588.29 264.943C588.29 267.864 587.818 270.33 586.875 272.341C585.943 274.341 584.67 275.858 583.057 276.892C581.454 277.915 579.659 278.426 577.67 278.426C576.261 278.426 575.062 278.193 574.074 277.727C573.096 277.261 572.295 276.676 571.67 275.972C571.045 275.256 570.568 274.534 570.239 273.807H570.017V287.818H562.756ZM569.864 264.909C569.864 266.466 570.079 267.824 570.511 268.983C570.943 270.142 571.568 271.045 572.386 271.693C573.204 272.33 574.199 272.648 575.369 272.648C576.551 272.648 577.551 272.324 578.369 271.676C579.187 271.017 579.807 270.108 580.227 268.949C580.659 267.778 580.875 266.432 580.875 264.909C580.875 263.398 580.665 262.068 580.244 260.92C579.824 259.773 579.204 258.875 578.386 258.227C577.568 257.58 576.562 257.256 575.369 257.256C574.187 257.256 573.187 257.568 572.369 258.193C571.562 258.818 570.943 259.705 570.511 260.852C570.079 262 569.864 263.352 569.864 264.909Z" fill="white"/>
<rect x="250" y="494" width="456" height="68" rx="18" fill="#323232" stroke="#4A4A4A" stroke-width="4"/>
<rect x="250" y="382" width="456" height="68" rx="18" fill="#323232" stroke="#4A4A4A" stroke-width="4"/>
<rect x="250" y="606" width="456" height="68" rx="18" fill="#323232" stroke="#4A4A4A" stroke-width="4"/>
<g filter="url(#filter1_f_26_77)">
<rect x="248" y="736" width="460" height="72" rx="20" fill="#F6F6F6"/>
</g>
<rect x="248" y="736" width="460" height="72" rx="20" fill="#F6F6F6"/>
<path d="M269.761 535V520.455H278.54V522.017H271.523V526.932H278.085V528.494H271.523V533.438H278.653V535H269.761ZM281.487 535V524.091H283.107V525.795H283.249C283.476 525.213 283.843 524.761 284.349 524.439C284.856 524.112 285.464 523.949 286.175 523.949C286.894 523.949 287.493 524.112 287.972 524.439C288.455 524.761 288.831 525.213 289.101 525.795H289.214C289.494 525.232 289.913 524.785 290.472 524.453C291.03 524.117 291.7 523.949 292.482 523.949C293.457 523.949 294.255 524.254 294.875 524.865C295.495 525.471 295.805 526.416 295.805 527.699V535H294.129V527.699C294.129 526.894 293.909 526.319 293.469 525.973C293.028 525.627 292.51 525.455 291.913 525.455C291.146 525.455 290.552 525.687 290.131 526.151C289.709 526.61 289.499 527.192 289.499 527.898V535H287.794V527.528C287.794 526.908 287.593 526.409 287.19 526.03C286.788 525.646 286.269 525.455 285.635 525.455C285.199 525.455 284.792 525.571 284.413 525.803C284.039 526.035 283.736 526.357 283.504 526.768C283.277 527.176 283.163 527.647 283.163 528.182V535H281.487ZM302.08 535.256C301.389 535.256 300.762 535.125 300.198 534.865C299.635 534.6 299.187 534.219 298.856 533.722C298.524 533.22 298.359 532.614 298.359 531.903C298.359 531.278 298.482 530.772 298.728 530.384C298.974 529.991 299.303 529.683 299.715 529.46C300.127 529.238 300.582 529.072 301.079 528.963C301.581 528.849 302.085 528.759 302.592 528.693C303.254 528.608 303.792 528.544 304.204 528.501C304.621 528.454 304.924 528.376 305.113 528.267C305.307 528.158 305.404 527.969 305.404 527.699V527.642C305.404 526.941 305.212 526.397 304.829 526.009C304.45 525.62 303.875 525.426 303.103 525.426C302.303 525.426 301.675 525.601 301.221 525.952C300.766 526.302 300.447 526.676 300.262 527.074L298.671 526.506C298.955 525.843 299.334 525.327 299.808 524.957C300.286 524.583 300.807 524.323 301.37 524.176C301.938 524.025 302.497 523.949 303.046 523.949C303.397 523.949 303.799 523.991 304.254 524.077C304.713 524.157 305.156 524.325 305.582 524.581C306.013 524.837 306.37 525.223 306.654 525.739C306.938 526.255 307.08 526.946 307.08 527.812V535H305.404V533.523H305.319C305.205 533.759 305.016 534.013 304.751 534.283C304.486 534.553 304.133 534.782 303.692 534.972C303.252 535.161 302.715 535.256 302.08 535.256ZM302.336 533.75C302.999 533.75 303.558 533.62 304.012 533.359C304.471 533.099 304.817 532.763 305.049 532.351C305.286 531.939 305.404 531.506 305.404 531.051V529.517C305.333 529.602 305.177 529.68 304.935 529.751C304.699 529.818 304.424 529.877 304.112 529.929C303.804 529.976 303.503 530.019 303.21 530.057C302.921 530.09 302.686 530.118 302.506 530.142C302.071 530.199 301.664 530.291 301.285 530.419C300.911 530.542 300.608 530.729 300.376 530.98C300.148 531.226 300.035 531.562 300.035 531.989C300.035 532.571 300.25 533.011 300.681 533.31C301.117 533.603 301.668 533.75 302.336 533.75ZM310.14 535V524.091H311.816V535H310.14ZM310.992 522.273C310.665 522.273 310.383 522.161 310.147 521.939C309.915 521.716 309.799 521.449 309.799 521.136C309.799 520.824 309.915 520.556 310.147 520.334C310.383 520.111 310.665 520 310.992 520C311.319 520 311.598 520.111 311.83 520.334C312.067 520.556 312.185 520.824 312.185 521.136C312.185 521.449 312.067 521.716 311.83 521.939C311.598 522.161 311.319 522.273 310.992 522.273ZM316.562 520.455V535H314.886V520.455H316.562Z" fill="#D9D9D9"/>
<path d="M279.307 408.455H281.068V418.085C281.068 419.08 280.834 419.967 280.365 420.749C279.901 421.525 279.245 422.138 278.398 422.588C277.55 423.033 276.556 423.256 275.415 423.256C274.274 423.256 273.279 423.033 272.432 422.588C271.584 422.138 270.926 421.525 270.457 420.749C269.993 419.967 269.761 419.08 269.761 418.085V408.455H271.523V417.943C271.523 418.653 271.679 419.286 271.991 419.839C272.304 420.389 272.749 420.822 273.327 421.139C273.909 421.452 274.605 421.608 275.415 421.608C276.224 421.608 276.92 421.452 277.503 421.139C278.085 420.822 278.53 420.389 278.838 419.839C279.151 419.286 279.307 418.653 279.307 417.943V408.455ZM292.086 414.534L290.58 414.96C290.485 414.709 290.346 414.465 290.161 414.229C289.981 413.987 289.735 413.788 289.422 413.632C289.11 413.476 288.71 413.398 288.222 413.398C287.554 413.398 286.998 413.552 286.553 413.859C286.113 414.162 285.892 414.548 285.892 415.017C285.892 415.434 286.044 415.763 286.347 416.004C286.65 416.246 287.123 416.447 287.767 416.608L289.387 417.006C290.362 417.242 291.089 417.605 291.567 418.092C292.045 418.575 292.284 419.198 292.284 419.96C292.284 420.585 292.105 421.144 291.745 421.636C291.39 422.129 290.892 422.517 290.253 422.801C289.614 423.085 288.871 423.227 288.023 423.227C286.91 423.227 285.989 422.986 285.26 422.503C284.531 422.02 284.069 421.314 283.875 420.386L285.466 419.989C285.618 420.576 285.904 421.016 286.326 421.31C286.752 421.603 287.308 421.75 287.995 421.75C288.776 421.75 289.396 421.584 289.855 421.253C290.319 420.917 290.551 420.514 290.551 420.045C290.551 419.667 290.419 419.349 290.154 419.094C289.889 418.833 289.481 418.639 288.932 418.511L287.114 418.085C286.115 417.848 285.381 417.482 284.912 416.984C284.448 416.482 284.216 415.855 284.216 415.102C284.216 414.487 284.389 413.942 284.735 413.469C285.085 412.995 285.561 412.624 286.162 412.354C286.768 412.084 287.455 411.949 288.222 411.949C289.301 411.949 290.149 412.186 290.765 412.659C291.385 413.133 291.825 413.758 292.086 414.534ZM299.381 423.227C298.33 423.227 297.424 422.995 296.661 422.531C295.904 422.062 295.319 421.409 294.907 420.571C294.5 419.728 294.296 418.748 294.296 417.631C294.296 416.513 294.5 415.528 294.907 414.676C295.319 413.819 295.892 413.152 296.626 412.673C297.364 412.19 298.226 411.949 299.211 411.949C299.779 411.949 300.34 412.044 300.894 412.233C301.448 412.422 301.952 412.73 302.407 413.156C302.862 413.578 303.224 414.136 303.494 414.832C303.763 415.528 303.898 416.385 303.898 417.403V418.114H295.489V416.665H302.194C302.194 416.049 302.071 415.5 301.825 415.017C301.583 414.534 301.237 414.153 300.788 413.874C300.343 413.594 299.817 413.455 299.211 413.455C298.543 413.455 297.966 413.62 297.478 413.952C296.995 414.278 296.623 414.705 296.363 415.23C296.103 415.756 295.972 416.319 295.972 416.92V417.886C295.972 418.71 296.114 419.409 296.398 419.982C296.687 420.55 297.087 420.983 297.599 421.281C298.11 421.575 298.704 421.722 299.381 421.722C299.822 421.722 300.219 421.66 300.575 421.537C300.934 421.409 301.245 421.22 301.505 420.969C301.765 420.713 301.967 420.396 302.109 420.017L303.728 420.472C303.558 421.021 303.271 421.504 302.869 421.92C302.466 422.332 301.969 422.654 301.377 422.886C300.785 423.114 300.12 423.227 299.381 423.227ZM306.448 423V412.091H308.067V413.739H308.181C308.38 413.199 308.74 412.761 309.261 412.425C309.781 412.089 310.369 411.92 311.022 411.92C311.145 411.92 311.299 411.923 311.484 411.928C311.668 411.932 311.808 411.939 311.903 411.949V413.653C311.846 413.639 311.716 413.618 311.512 413.589C311.313 413.556 311.103 413.54 310.88 413.54C310.35 413.54 309.876 413.651 309.46 413.874C309.048 414.091 308.721 414.394 308.479 414.783C308.243 415.166 308.124 415.604 308.124 416.097V423H306.448ZM315.566 416.438V423H313.89V412.091H315.509V413.795H315.651C315.907 413.241 316.295 412.796 316.816 412.46C317.337 412.119 318.009 411.949 318.833 411.949C319.571 411.949 320.218 412.1 320.772 412.403C321.326 412.702 321.757 413.156 322.064 413.767C322.372 414.373 322.526 415.14 322.526 416.068V423H320.85V416.182C320.85 415.325 320.627 414.657 320.182 414.179C319.737 413.696 319.126 413.455 318.35 413.455C317.815 413.455 317.337 413.571 316.915 413.803C316.498 414.035 316.169 414.373 315.928 414.818C315.686 415.263 315.566 415.803 315.566 416.438ZM328.799 423.256C328.108 423.256 327.48 423.125 326.917 422.865C326.353 422.6 325.906 422.219 325.575 421.722C325.243 421.22 325.077 420.614 325.077 419.903C325.077 419.278 325.201 418.772 325.447 418.384C325.693 417.991 326.022 417.683 326.434 417.46C326.846 417.238 327.3 417.072 327.798 416.963C328.299 416.849 328.804 416.759 329.31 416.693C329.973 416.608 330.511 416.544 330.923 416.501C331.339 416.454 331.642 416.376 331.832 416.267C332.026 416.158 332.123 415.969 332.123 415.699V415.642C332.123 414.941 331.931 414.397 331.548 414.009C331.169 413.62 330.594 413.426 329.822 413.426C329.022 413.426 328.394 413.601 327.94 413.952C327.485 414.302 327.165 414.676 326.981 415.074L325.39 414.506C325.674 413.843 326.053 413.327 326.526 412.957C327.004 412.583 327.525 412.323 328.089 412.176C328.657 412.025 329.216 411.949 329.765 411.949C330.115 411.949 330.518 411.991 330.972 412.077C331.432 412.157 331.874 412.325 332.3 412.581C332.731 412.837 333.089 413.223 333.373 413.739C333.657 414.255 333.799 414.946 333.799 415.812V423H332.123V421.523H332.038C331.924 421.759 331.735 422.013 331.469 422.283C331.204 422.553 330.852 422.782 330.411 422.972C329.971 423.161 329.433 423.256 328.799 423.256ZM329.055 421.75C329.718 421.75 330.276 421.62 330.731 421.359C331.19 421.099 331.536 420.763 331.768 420.351C332.004 419.939 332.123 419.506 332.123 419.051V417.517C332.052 417.602 331.896 417.68 331.654 417.751C331.417 417.818 331.143 417.877 330.83 417.929C330.522 417.976 330.222 418.019 329.928 418.057C329.639 418.09 329.405 418.118 329.225 418.142C328.79 418.199 328.382 418.291 328.004 418.419C327.629 418.542 327.326 418.729 327.094 418.98C326.867 419.226 326.754 419.562 326.754 419.989C326.754 420.571 326.969 421.011 327.4 421.31C327.835 421.603 328.387 421.75 329.055 421.75ZM336.858 423V412.091H338.478V413.795H338.62C338.847 413.213 339.214 412.761 339.721 412.439C340.227 412.112 340.836 411.949 341.546 411.949C342.266 411.949 342.864 412.112 343.343 412.439C343.826 412.761 344.202 413.213 344.472 413.795H344.586C344.865 413.232 345.284 412.785 345.843 412.453C346.401 412.117 347.071 411.949 347.853 411.949C348.828 411.949 349.626 412.254 350.246 412.865C350.866 413.471 351.176 414.416 351.176 415.699V423H349.5V415.699C349.5 414.894 349.28 414.319 348.84 413.973C348.4 413.627 347.881 413.455 347.284 413.455C346.517 413.455 345.923 413.687 345.502 414.151C345.08 414.61 344.87 415.192 344.87 415.898V423H343.165V415.528C343.165 414.908 342.964 414.409 342.561 414.03C342.159 413.646 341.641 413.455 341.006 413.455C340.57 413.455 340.163 413.571 339.784 413.803C339.41 414.035 339.107 414.357 338.875 414.768C338.648 415.176 338.534 415.647 338.534 416.182V423H336.858ZM358.815 423.227C357.764 423.227 356.857 422.995 356.095 422.531C355.337 422.062 354.752 421.409 354.341 420.571C353.933 419.728 353.73 418.748 353.73 417.631C353.73 416.513 353.933 415.528 354.341 414.676C354.752 413.819 355.325 413.152 356.059 412.673C356.798 412.19 357.66 411.949 358.645 411.949C359.213 411.949 359.774 412.044 360.328 412.233C360.882 412.422 361.386 412.73 361.841 413.156C362.295 413.578 362.657 414.136 362.927 414.832C363.197 415.528 363.332 416.385 363.332 417.403V418.114H354.923V416.665H361.627C361.627 416.049 361.504 415.5 361.258 415.017C361.017 414.534 360.671 414.153 360.221 413.874C359.776 413.594 359.251 413.455 358.645 413.455C357.977 413.455 357.399 413.62 356.912 413.952C356.429 414.278 356.057 414.705 355.797 415.23C355.536 415.756 355.406 416.319 355.406 416.92V417.886C355.406 418.71 355.548 419.409 355.832 419.982C356.121 420.55 356.521 420.983 357.032 421.281C357.544 421.575 358.138 421.722 358.815 421.722C359.255 421.722 359.653 421.66 360.008 421.537C360.368 421.409 360.678 421.22 360.939 420.969C361.199 420.713 361.4 420.396 361.542 420.017L363.162 420.472C362.991 421.021 362.705 421.504 362.302 421.92C361.9 422.332 361.403 422.654 360.811 422.886C360.219 423.114 359.554 423.227 358.815 423.227Z" fill="#D9D9D9"/>
<path d="M269.761 647V632.455H274.676C275.817 632.455 276.75 632.661 277.474 633.072C278.204 633.48 278.743 634.031 279.094 634.727C279.444 635.423 279.619 636.2 279.619 637.057C279.619 637.914 279.444 638.693 279.094 639.393C278.748 640.094 278.213 640.653 277.489 641.07C276.764 641.482 275.836 641.688 274.705 641.688H271.182V640.125H274.648C275.429 640.125 276.056 639.99 276.53 639.72C277.003 639.45 277.347 639.086 277.56 638.626C277.777 638.162 277.886 637.639 277.886 637.057C277.886 636.474 277.777 635.954 277.56 635.494C277.347 635.035 277.001 634.675 276.523 634.415C276.045 634.15 275.41 634.017 274.619 634.017H271.523V647H269.761ZM285.44 647.256C284.748 647.256 284.121 647.125 283.558 646.865C282.994 646.6 282.547 646.219 282.215 645.722C281.884 645.22 281.718 644.614 281.718 643.903C281.718 643.278 281.841 642.772 282.087 642.384C282.334 641.991 282.663 641.683 283.075 641.46C283.487 641.238 283.941 641.072 284.438 640.963C284.94 640.849 285.444 640.759 285.951 640.693C286.614 640.608 287.151 640.544 287.563 640.501C287.98 640.454 288.283 640.376 288.472 640.267C288.666 640.158 288.763 639.969 288.763 639.699V639.642C288.763 638.941 288.572 638.397 288.188 638.009C287.809 637.62 287.234 637.426 286.462 637.426C285.662 637.426 285.035 637.601 284.58 637.952C284.126 638.302 283.806 638.676 283.621 639.074L282.031 638.506C282.315 637.843 282.693 637.327 283.167 636.957C283.645 636.583 284.166 636.323 284.729 636.176C285.298 636.025 285.856 635.949 286.406 635.949C286.756 635.949 287.158 635.991 287.613 636.077C288.072 636.157 288.515 636.325 288.941 636.581C289.372 636.837 289.729 637.223 290.013 637.739C290.298 638.255 290.44 638.946 290.44 639.812V647H288.763V645.523H288.678C288.565 645.759 288.375 646.013 288.11 646.283C287.845 646.553 287.492 646.782 287.052 646.972C286.612 647.161 286.074 647.256 285.44 647.256ZM285.695 645.75C286.358 645.75 286.917 645.62 287.371 645.359C287.831 645.099 288.176 644.763 288.408 644.351C288.645 643.939 288.763 643.506 288.763 643.051V641.517C288.692 641.602 288.536 641.68 288.295 641.751C288.058 641.818 287.783 641.877 287.471 641.929C287.163 641.976 286.862 642.019 286.569 642.057C286.28 642.09 286.046 642.118 285.866 642.142C285.43 642.199 285.023 642.291 284.644 642.419C284.27 642.542 283.967 642.729 283.735 642.98C283.508 643.226 283.394 643.562 283.394 643.989C283.394 644.571 283.61 645.011 284.04 645.31C284.476 645.603 285.028 645.75 285.695 645.75ZM301.226 638.534L299.721 638.96C299.626 638.709 299.486 638.465 299.301 638.229C299.122 637.987 298.875 637.788 298.563 637.632C298.25 637.476 297.85 637.398 297.363 637.398C296.695 637.398 296.139 637.552 295.694 637.859C295.253 638.162 295.033 638.548 295.033 639.017C295.033 639.434 295.185 639.763 295.488 640.004C295.791 640.246 296.264 640.447 296.908 640.608L298.527 641.006C299.503 641.242 300.23 641.605 300.708 642.092C301.186 642.575 301.425 643.198 301.425 643.96C301.425 644.585 301.245 645.144 300.885 645.636C300.53 646.129 300.033 646.517 299.394 646.801C298.755 647.085 298.011 647.227 297.164 647.227C296.051 647.227 295.13 646.986 294.401 646.503C293.672 646.02 293.21 645.314 293.016 644.386L294.607 643.989C294.758 644.576 295.045 645.016 295.466 645.31C295.892 645.603 296.449 645.75 297.135 645.75C297.917 645.75 298.537 645.584 298.996 645.253C299.46 644.917 299.692 644.514 299.692 644.045C299.692 643.667 299.56 643.349 299.294 643.094C299.029 642.833 298.622 642.639 298.073 642.511L296.255 642.085C295.256 641.848 294.522 641.482 294.053 640.984C293.589 640.482 293.357 639.855 293.357 639.102C293.357 638.487 293.53 637.942 293.875 637.469C294.226 636.995 294.702 636.624 295.303 636.354C295.909 636.084 296.596 635.949 297.363 635.949C298.442 635.949 299.29 636.186 299.905 636.659C300.525 637.133 300.966 637.758 301.226 638.534ZM311.675 638.534L310.17 638.96C310.075 638.709 309.935 638.465 309.751 638.229C309.571 637.987 309.325 637.788 309.012 637.632C308.7 637.476 308.299 637.398 307.812 637.398C307.144 637.398 306.588 637.552 306.143 637.859C305.702 638.162 305.482 638.548 305.482 639.017C305.482 639.434 305.634 639.763 305.937 640.004C306.24 640.246 306.713 640.447 307.357 640.608L308.977 641.006C309.952 641.242 310.679 641.605 311.157 642.092C311.635 642.575 311.874 643.198 311.874 643.96C311.874 644.585 311.694 645.144 311.335 645.636C310.979 646.129 310.482 646.517 309.843 646.801C309.204 647.085 308.46 647.227 307.613 647.227C306.5 647.227 305.579 646.986 304.85 646.503C304.121 646.02 303.659 645.314 303.465 644.386L305.056 643.989C305.208 644.576 305.494 645.016 305.915 645.31C306.342 645.603 306.898 645.75 307.585 645.75C308.366 645.75 308.986 645.584 309.445 645.253C309.909 644.917 310.141 644.514 310.141 644.045C310.141 643.667 310.009 643.349 309.744 643.094C309.478 642.833 309.071 642.639 308.522 642.511L306.704 642.085C305.705 641.848 304.971 641.482 304.502 640.984C304.038 640.482 303.806 639.855 303.806 639.102C303.806 638.487 303.979 637.942 304.325 637.469C304.675 636.995 305.151 636.624 305.752 636.354C306.358 636.084 307.045 635.949 307.812 635.949C308.891 635.949 309.739 636.186 310.354 636.659C310.975 637.133 311.415 637.758 311.675 638.534ZM316.869 647L313.545 636.091H315.306L317.664 644.443H317.778L320.108 636.091H321.897L324.199 644.415H324.312L326.67 636.091H328.431L325.108 647H323.46L321.074 638.619H320.903L318.517 647H316.869ZM334.708 647.227C333.723 647.227 332.859 646.993 332.116 646.524C331.377 646.055 330.799 645.4 330.383 644.557C329.971 643.714 329.765 642.729 329.765 641.602C329.765 640.466 329.971 639.474 330.383 638.626C330.799 637.779 331.377 637.121 332.116 636.652C332.859 636.183 333.723 635.949 334.708 635.949C335.693 635.949 336.555 636.183 337.293 636.652C338.037 637.121 338.614 637.779 339.026 638.626C339.443 639.474 339.651 640.466 339.651 641.602C339.651 642.729 339.443 643.714 339.026 644.557C338.614 645.4 338.037 646.055 337.293 646.524C336.555 646.993 335.693 647.227 334.708 647.227ZM334.708 645.722C335.456 645.722 336.072 645.53 336.555 645.146C337.038 644.763 337.395 644.259 337.627 643.634C337.859 643.009 337.975 642.331 337.975 641.602C337.975 640.873 337.859 640.194 337.627 639.564C337.395 638.934 337.038 638.425 336.555 638.037C336.072 637.649 335.456 637.455 334.708 637.455C333.96 637.455 333.344 637.649 332.862 638.037C332.379 638.425 332.021 638.934 331.789 639.564C331.557 640.194 331.441 640.873 331.441 641.602C331.441 642.331 331.557 643.009 331.789 643.634C332.021 644.259 332.379 644.763 332.862 645.146C333.344 645.53 333.96 645.722 334.708 645.722ZM342.21 647V636.091H343.829V637.739H343.943C344.142 637.199 344.502 636.761 345.022 636.425C345.543 636.089 346.13 635.92 346.784 635.92C346.907 635.92 347.061 635.923 347.245 635.928C347.43 635.932 347.57 635.939 347.664 635.949V637.653C347.608 637.639 347.477 637.618 347.274 637.589C347.075 637.556 346.864 637.54 346.642 637.54C346.111 637.54 345.638 637.651 345.221 637.874C344.809 638.091 344.483 638.394 344.241 638.783C344.004 639.166 343.886 639.604 343.886 640.097V647H342.21ZM353.439 647.227C352.529 647.227 351.727 646.998 351.031 646.538C350.335 646.074 349.79 645.421 349.397 644.578C349.004 643.731 348.808 642.729 348.808 641.574C348.808 640.428 349.004 639.434 349.397 638.591C349.79 637.748 350.337 637.097 351.038 636.638C351.739 636.179 352.548 635.949 353.467 635.949C354.177 635.949 354.738 636.067 355.15 636.304C355.567 636.536 355.884 636.801 356.102 637.099C356.324 637.393 356.497 637.634 356.62 637.824H356.762V632.455H358.439V647H356.819V645.324H356.62C356.497 645.523 356.322 645.774 356.095 646.077C355.868 646.375 355.543 646.643 355.122 646.879C354.7 647.111 354.139 647.227 353.439 647.227ZM353.666 645.722C354.338 645.722 354.906 645.546 355.37 645.196C355.834 644.841 356.187 644.351 356.429 643.726C356.67 643.096 356.791 642.369 356.791 641.545C356.791 640.731 356.672 640.018 356.436 639.408C356.199 638.792 355.849 638.314 355.385 637.973C354.921 637.627 354.348 637.455 353.666 637.455C352.956 637.455 352.364 637.637 351.89 638.001C351.422 638.361 351.069 638.851 350.832 639.472C350.6 640.087 350.484 640.778 350.484 641.545C350.484 642.322 350.602 643.027 350.839 643.662C351.081 644.292 351.436 644.794 351.904 645.168C352.378 645.537 352.965 645.722 353.666 645.722Z" fill="#D9D9D9"/>
<path d="M449.391 768.638C449.334 768.065 449.09 767.62 448.66 767.303C448.229 766.985 447.644 766.827 446.905 766.827C446.403 766.827 445.98 766.898 445.634 767.04C445.288 767.177 445.023 767.369 444.839 767.615C444.659 767.861 444.569 768.141 444.569 768.453C444.559 768.714 444.614 768.941 444.732 769.135C444.855 769.329 445.023 769.497 445.236 769.639C445.449 769.777 445.696 769.897 445.975 770.001C446.254 770.101 446.553 770.186 446.87 770.257L448.177 770.57C448.811 770.712 449.394 770.901 449.924 771.138C450.454 771.375 450.913 771.666 451.302 772.011C451.69 772.357 451.991 772.764 452.204 773.233C452.421 773.702 452.533 774.239 452.537 774.845C452.533 775.735 452.305 776.507 451.856 777.161C451.411 777.809 450.767 778.313 449.924 778.673C449.086 779.028 448.075 779.206 446.891 779.206C445.717 779.206 444.694 779.026 443.823 778.666C442.956 778.306 442.279 777.774 441.792 777.068C441.309 776.358 441.055 775.48 441.032 774.433H444.008C444.041 774.921 444.18 775.328 444.427 775.655C444.678 775.977 445.011 776.221 445.428 776.386C445.849 776.547 446.325 776.628 446.856 776.628C447.376 776.628 447.829 776.552 448.212 776.401C448.6 776.249 448.901 776.038 449.114 775.768C449.327 775.499 449.434 775.188 449.434 774.838C449.434 774.511 449.337 774.237 449.143 774.014C448.953 773.792 448.674 773.602 448.305 773.446C447.94 773.29 447.492 773.148 446.962 773.02L445.378 772.622C444.152 772.324 443.184 771.857 442.474 771.223C441.763 770.589 441.411 769.734 441.415 768.659C441.411 767.778 441.645 767.009 442.118 766.351C442.597 765.693 443.252 765.179 444.086 764.81C444.919 764.44 445.866 764.256 446.927 764.256C448.006 764.256 448.948 764.44 449.753 764.81C450.563 765.179 451.193 765.693 451.643 766.351C452.092 767.009 452.324 767.771 452.339 768.638H449.391ZM454.549 779V768.091H457.575V779H454.549ZM456.069 766.685C455.619 766.685 455.233 766.536 454.911 766.237C454.594 765.934 454.436 765.572 454.436 765.151C454.436 764.734 454.594 764.376 454.911 764.078C455.233 763.775 455.619 763.624 456.069 763.624C456.519 763.624 456.902 763.775 457.22 764.078C457.542 764.376 457.703 764.734 457.703 765.151C457.703 765.572 457.542 765.934 457.22 766.237C456.902 766.536 456.519 766.685 456.069 766.685ZM464.913 783.318C463.933 783.318 463.093 783.183 462.392 782.913C461.696 782.648 461.142 782.286 460.73 781.827C460.318 781.367 460.05 780.851 459.927 780.278L462.726 779.902C462.811 780.12 462.946 780.323 463.131 780.513C463.315 780.702 463.559 780.854 463.862 780.967C464.17 781.086 464.544 781.145 464.984 781.145C465.642 781.145 466.184 780.984 466.611 780.662C467.041 780.345 467.257 779.812 467.257 779.064V777.068H467.129C466.997 777.371 466.798 777.658 466.532 777.928C466.267 778.197 465.926 778.418 465.51 778.588C465.093 778.759 464.596 778.844 464.018 778.844C463.199 778.844 462.453 778.654 461.781 778.276C461.113 777.892 460.581 777.307 460.183 776.521C459.79 775.731 459.594 774.732 459.594 773.524C459.594 772.288 459.795 771.256 460.197 770.428C460.6 769.599 461.135 768.979 461.802 768.567C462.475 768.155 463.211 767.949 464.011 767.949C464.622 767.949 465.133 768.053 465.545 768.261C465.957 768.465 466.289 768.721 466.54 769.028C466.795 769.331 466.992 769.63 467.129 769.923H467.243V768.091H470.247V779.107C470.247 780.035 470.02 780.811 469.565 781.436C469.111 782.061 468.481 782.53 467.676 782.842C466.876 783.16 465.955 783.318 464.913 783.318ZM464.977 776.571C465.465 776.571 465.877 776.45 466.213 776.209C466.554 775.963 466.814 775.612 466.994 775.158C467.179 774.698 467.271 774.149 467.271 773.51C467.271 772.871 467.181 772.317 467.001 771.848C466.821 771.375 466.561 771.008 466.22 770.747C465.879 770.487 465.465 770.357 464.977 770.357C464.48 770.357 464.061 770.491 463.72 770.761C463.379 771.027 463.121 771.396 462.946 771.869C462.771 772.343 462.683 772.89 462.683 773.51C462.683 774.14 462.771 774.684 462.946 775.143C463.126 775.598 463.384 775.951 463.72 776.202C464.061 776.448 464.48 776.571 464.977 776.571ZM475.68 772.693V779H472.655V768.091H475.538V770.016H475.666C475.907 769.381 476.312 768.879 476.881 768.51C477.449 768.136 478.138 767.949 478.947 767.949C479.705 767.949 480.365 768.115 480.929 768.446C481.492 768.777 481.93 769.251 482.243 769.866C482.555 770.477 482.711 771.206 482.711 772.054V779H479.686V772.594C479.691 771.926 479.52 771.405 479.175 771.031C478.829 770.652 478.353 770.463 477.747 770.463C477.34 770.463 476.98 770.551 476.667 770.726C476.36 770.901 476.118 771.157 475.943 771.493C475.773 771.824 475.685 772.224 475.68 772.693ZM498.766 764.455H501.841V773.901C501.841 774.961 501.588 775.889 501.081 776.685C500.58 777.48 499.876 778.1 498.972 778.545C498.068 778.986 497.014 779.206 495.812 779.206C494.604 779.206 493.548 778.986 492.644 778.545C491.74 778.1 491.037 777.48 490.535 776.685C490.033 775.889 489.782 774.961 489.782 773.901V764.455H492.857V773.638C492.857 774.192 492.978 774.684 493.219 775.115C493.465 775.546 493.811 775.884 494.256 776.131C494.701 776.377 495.22 776.5 495.812 776.5C496.408 776.5 496.927 776.377 497.367 776.131C497.812 775.884 498.155 775.546 498.397 775.115C498.643 774.684 498.766 774.192 498.766 773.638V764.455ZM504.315 783.091V768.091H507.298V769.923H507.433C507.565 769.63 507.757 769.331 508.008 769.028C508.264 768.721 508.595 768.465 509.002 768.261C509.414 768.053 509.926 767.949 510.536 767.949C511.332 767.949 512.066 768.157 512.738 768.574C513.41 768.986 513.948 769.608 514.35 770.442C514.753 771.27 514.954 772.31 514.954 773.56C514.954 774.777 514.758 775.804 514.365 776.642C513.976 777.475 513.446 778.107 512.774 778.538C512.106 778.964 511.358 779.178 510.529 779.178C509.942 779.178 509.443 779.08 509.031 778.886C508.624 778.692 508.29 778.448 508.029 778.155C507.769 777.857 507.57 777.556 507.433 777.253H507.34V783.091H504.315ZM507.276 773.545C507.276 774.194 507.366 774.76 507.546 775.243C507.726 775.726 507.987 776.102 508.328 776.372C508.669 776.637 509.083 776.77 509.57 776.77C510.063 776.77 510.48 776.635 510.82 776.365C511.161 776.09 511.419 775.712 511.595 775.229C511.775 774.741 511.865 774.18 511.865 773.545C511.865 772.916 511.777 772.362 511.602 771.884C511.427 771.405 511.169 771.031 510.828 770.761C510.487 770.491 510.068 770.357 509.57 770.357C509.078 770.357 508.661 770.487 508.32 770.747C507.984 771.008 507.726 771.377 507.546 771.855C507.366 772.333 507.276 772.897 507.276 773.545Z" fill="#323232"/>
<path d="M269.409 702V690.364H276.386V691.614H270.818V695.545H275.864V696.795H270.818V702H269.409ZM281.523 702.182C280.735 702.182 280.044 701.994 279.449 701.619C278.858 701.244 278.396 700.72 278.062 700.045C277.733 699.371 277.568 698.583 277.568 697.682C277.568 696.773 277.733 695.979 278.062 695.301C278.396 694.623 278.858 694.097 279.449 693.722C280.044 693.347 280.735 693.159 281.523 693.159C282.311 693.159 283 693.347 283.591 693.722C284.186 694.097 284.648 694.623 284.977 695.301C285.311 695.979 285.477 696.773 285.477 697.682C285.477 698.583 285.311 699.371 284.977 700.045C284.648 700.72 284.186 701.244 283.591 701.619C283 701.994 282.311 702.182 281.523 702.182ZM281.523 700.977C282.121 700.977 282.614 700.824 283 700.517C283.386 700.21 283.672 699.807 283.858 699.307C284.044 698.807 284.136 698.265 284.136 697.682C284.136 697.098 284.044 696.555 283.858 696.051C283.672 695.547 283.386 695.14 283 694.83C282.614 694.519 282.121 694.364 281.523 694.364C280.924 694.364 280.432 694.519 280.045 694.83C279.659 695.14 279.373 695.547 279.188 696.051C279.002 696.555 278.909 697.098 278.909 697.682C278.909 698.265 279.002 698.807 279.188 699.307C279.373 699.807 279.659 700.21 280.045 700.517C280.432 700.824 280.924 700.977 281.523 700.977ZM287.524 702V693.273H288.82V694.591H288.911C289.07 694.159 289.357 693.809 289.774 693.54C290.191 693.271 290.661 693.136 291.183 693.136C291.282 693.136 291.405 693.138 291.553 693.142C291.7 693.146 291.812 693.152 291.888 693.159V694.523C291.842 694.511 291.738 694.494 291.575 694.472C291.416 694.445 291.248 694.432 291.07 694.432C290.645 694.432 290.267 694.521 289.933 694.699C289.604 694.873 289.342 695.116 289.149 695.426C288.96 695.733 288.865 696.083 288.865 696.477V702H287.524ZM296.734 705.455C296.087 705.455 295.53 705.371 295.064 705.205C294.598 705.042 294.21 704.826 293.899 704.557C293.592 704.292 293.348 704.008 293.166 703.705L294.234 702.955C294.356 703.114 294.509 703.295 294.695 703.5C294.88 703.708 295.134 703.888 295.456 704.04C295.782 704.195 296.208 704.273 296.734 704.273C297.439 704.273 298.02 704.102 298.479 703.761C298.937 703.42 299.166 702.886 299.166 702.159V700.386H299.053C298.954 700.545 298.814 700.742 298.632 700.977C298.454 701.208 298.196 701.415 297.859 701.597C297.526 701.775 297.075 701.864 296.507 701.864C295.803 701.864 295.17 701.697 294.609 701.364C294.053 701.03 293.611 700.545 293.286 699.909C292.964 699.273 292.803 698.5 292.803 697.591C292.803 696.697 292.96 695.919 293.274 695.256C293.589 694.589 294.026 694.074 294.587 693.71C295.147 693.343 295.795 693.159 296.53 693.159C297.098 693.159 297.549 693.254 297.882 693.443C298.219 693.629 298.477 693.841 298.655 694.08C298.837 694.314 298.977 694.508 299.075 694.659H299.212V693.273H300.507V702.25C300.507 703 300.337 703.61 299.996 704.08C299.659 704.553 299.204 704.9 298.632 705.119C298.064 705.343 297.431 705.455 296.734 705.455ZM296.689 700.659C297.227 700.659 297.681 700.536 298.053 700.29C298.424 700.044 298.706 699.689 298.899 699.227C299.092 698.765 299.189 698.212 299.189 697.568C299.189 696.939 299.094 696.384 298.905 695.903C298.715 695.422 298.435 695.045 298.064 694.773C297.693 694.5 297.234 694.364 296.689 694.364C296.121 694.364 295.647 694.508 295.268 694.795C294.893 695.083 294.611 695.47 294.422 695.955C294.236 696.439 294.143 696.977 294.143 697.568C294.143 698.174 294.238 698.71 294.428 699.176C294.621 699.638 294.905 700.002 295.28 700.267C295.659 700.528 296.128 700.659 296.689 700.659ZM306.507 702.182C305.719 702.182 305.028 701.994 304.433 701.619C303.842 701.244 303.38 700.72 303.047 700.045C302.717 699.371 302.553 698.583 302.553 697.682C302.553 696.773 302.717 695.979 303.047 695.301C303.38 694.623 303.842 694.097 304.433 693.722C305.028 693.347 305.719 693.159 306.507 693.159C307.295 693.159 307.984 693.347 308.575 693.722C309.17 694.097 309.632 694.623 309.962 695.301C310.295 695.979 310.462 696.773 310.462 697.682C310.462 698.583 310.295 699.371 309.962 700.045C309.632 700.72 309.17 701.244 308.575 701.619C307.984 701.994 307.295 702.182 306.507 702.182ZM306.507 700.977C307.106 700.977 307.598 700.824 307.984 700.517C308.371 700.21 308.657 699.807 308.842 699.307C309.028 698.807 309.121 698.265 309.121 697.682C309.121 697.098 309.028 696.555 308.842 696.051C308.657 695.547 308.371 695.14 307.984 694.83C307.598 694.519 307.106 694.364 306.507 694.364C305.909 694.364 305.416 694.519 305.03 694.83C304.643 695.14 304.357 695.547 304.172 696.051C303.986 696.555 303.893 697.098 303.893 697.682C303.893 698.265 303.986 698.807 304.172 699.307C304.357 699.807 304.643 700.21 305.03 700.517C305.416 700.824 305.909 700.977 306.507 700.977ZM316.304 693.273V694.409H311.781V693.273H316.304ZM313.099 691.182H314.44V699.5C314.44 699.879 314.495 700.163 314.605 700.352C314.719 700.538 314.863 700.663 315.037 700.727C315.215 700.788 315.402 700.818 315.599 700.818C315.747 700.818 315.868 700.811 315.963 700.795C316.058 700.777 316.134 700.761 316.19 700.75L316.463 701.955C316.372 701.989 316.245 702.023 316.082 702.057C315.92 702.095 315.713 702.114 315.463 702.114C315.084 702.114 314.713 702.032 314.349 701.869C313.99 701.706 313.69 701.458 313.452 701.125C313.217 700.792 313.099 700.371 313.099 699.864V691.182ZM322.821 705.273V693.273H324.116V694.659H324.276C324.374 694.508 324.51 694.314 324.685 694.08C324.863 693.841 325.116 693.629 325.446 693.443C325.779 693.254 326.23 693.159 326.798 693.159C327.533 693.159 328.181 693.343 328.741 693.71C329.302 694.078 329.74 694.598 330.054 695.273C330.368 695.947 330.526 696.742 330.526 697.659C330.526 698.583 330.368 699.384 330.054 700.062C329.74 700.737 329.304 701.259 328.747 701.631C328.19 701.998 327.548 702.182 326.821 702.182C326.26 702.182 325.812 702.089 325.474 701.903C325.137 701.714 324.878 701.5 324.696 701.261C324.514 701.019 324.374 700.818 324.276 700.659H324.162V705.273H322.821ZM324.139 697.636C324.139 698.295 324.236 698.877 324.429 699.381C324.622 699.881 324.904 700.273 325.276 700.557C325.647 700.837 326.101 700.977 326.639 700.977C327.2 700.977 327.668 700.83 328.043 700.534C328.421 700.235 328.705 699.833 328.895 699.33C329.088 698.822 329.185 698.258 329.185 697.636C329.185 697.023 329.09 696.47 328.901 695.977C328.715 695.481 328.433 695.089 328.054 694.801C327.679 694.509 327.207 694.364 326.639 694.364C326.094 694.364 325.635 694.502 325.264 694.778C324.893 695.051 324.613 695.434 324.423 695.926C324.234 696.415 324.139 696.985 324.139 697.636ZM335.139 702.205C334.586 702.205 334.084 702.1 333.634 701.892C333.183 701.68 332.825 701.375 332.56 700.977C332.295 700.576 332.162 700.091 332.162 699.523C332.162 699.023 332.26 698.617 332.457 698.307C332.654 697.992 332.918 697.746 333.247 697.568C333.577 697.39 333.94 697.258 334.338 697.17C334.74 697.08 335.143 697.008 335.548 696.955C336.079 696.886 336.509 696.835 336.838 696.801C337.171 696.763 337.414 696.701 337.565 696.614C337.721 696.527 337.798 696.375 337.798 696.159V696.114C337.798 695.553 337.645 695.117 337.338 694.807C337.035 694.496 336.575 694.341 335.957 694.341C335.317 694.341 334.815 694.481 334.452 694.761C334.088 695.042 333.832 695.341 333.685 695.659L332.412 695.205C332.639 694.674 332.942 694.261 333.321 693.966C333.704 693.667 334.12 693.458 334.571 693.341C335.026 693.22 335.473 693.159 335.912 693.159C336.192 693.159 336.514 693.193 336.878 693.261C337.245 693.326 337.599 693.46 337.94 693.665C338.285 693.869 338.571 694.178 338.798 694.591C339.026 695.004 339.139 695.557 339.139 696.25V702H337.798V700.818H337.73C337.639 701.008 337.488 701.21 337.276 701.426C337.063 701.642 336.781 701.826 336.429 701.977C336.077 702.129 335.647 702.205 335.139 702.205ZM335.344 701C335.874 701 336.321 700.896 336.685 700.688C337.052 700.479 337.329 700.21 337.514 699.881C337.704 699.551 337.798 699.205 337.798 698.841V697.614C337.741 697.682 337.616 697.744 337.423 697.801C337.234 697.854 337.014 697.902 336.764 697.943C336.518 697.981 336.277 698.015 336.043 698.045C335.812 698.072 335.624 698.095 335.48 698.114C335.132 698.159 334.806 698.233 334.503 698.335C334.204 698.434 333.961 698.583 333.776 698.784C333.594 698.981 333.503 699.25 333.503 699.591C333.503 700.057 333.675 700.409 334.02 700.648C334.368 700.883 334.81 701 335.344 701ZM347.768 695.227L346.564 695.568C346.488 695.367 346.376 695.172 346.229 694.983C346.085 694.79 345.888 694.631 345.638 694.506C345.388 694.381 345.068 694.318 344.678 694.318C344.143 694.318 343.698 694.441 343.342 694.688C342.99 694.93 342.814 695.239 342.814 695.614C342.814 695.947 342.935 696.21 343.178 696.403C343.42 696.597 343.799 696.758 344.314 696.886L345.609 697.205C346.39 697.394 346.971 697.684 347.354 698.074C347.736 698.46 347.928 698.958 347.928 699.568C347.928 700.068 347.784 700.515 347.496 700.909C347.212 701.303 346.814 701.614 346.303 701.841C345.791 702.068 345.196 702.182 344.518 702.182C343.628 702.182 342.892 701.989 342.308 701.602C341.725 701.216 341.356 700.652 341.2 699.909L342.473 699.591C342.594 700.061 342.823 700.413 343.161 700.648C343.501 700.883 343.946 701 344.496 701C345.121 701 345.617 700.867 345.984 700.602C346.356 700.333 346.541 700.011 346.541 699.636C346.541 699.333 346.435 699.08 346.223 698.875C346.011 698.667 345.685 698.511 345.246 698.409L343.791 698.068C342.992 697.879 342.405 697.585 342.03 697.188C341.659 696.786 341.473 696.284 341.473 695.682C341.473 695.189 341.611 694.754 341.888 694.375C342.168 693.996 342.549 693.699 343.03 693.483C343.515 693.267 344.064 693.159 344.678 693.159C345.541 693.159 346.219 693.348 346.712 693.727C347.208 694.106 347.56 694.606 347.768 695.227ZM356.128 695.227L354.923 695.568C354.848 695.367 354.736 695.172 354.588 694.983C354.444 694.79 354.247 694.631 353.997 694.506C353.747 694.381 353.427 694.318 353.037 694.318C352.503 694.318 352.058 694.441 351.702 694.688C351.349 694.93 351.173 695.239 351.173 695.614C351.173 695.947 351.295 696.21 351.537 696.403C351.779 696.597 352.158 696.758 352.673 696.886L353.969 697.205C354.749 697.394 355.33 697.684 355.713 698.074C356.096 698.46 356.287 698.958 356.287 699.568C356.287 700.068 356.143 700.515 355.855 700.909C355.571 701.303 355.173 701.614 354.662 701.841C354.151 702.068 353.556 702.182 352.878 702.182C351.988 702.182 351.251 701.989 350.668 701.602C350.084 701.216 349.715 700.652 349.56 699.909L350.832 699.591C350.954 700.061 351.183 700.413 351.52 700.648C351.861 700.883 352.306 701 352.855 701C353.48 701 353.976 700.867 354.344 700.602C354.715 700.333 354.901 700.011 354.901 699.636C354.901 699.333 354.795 699.08 354.582 698.875C354.37 698.667 354.045 698.511 353.605 698.409L352.151 698.068C351.351 697.879 350.764 697.585 350.389 697.188C350.018 696.786 349.832 696.284 349.832 695.682C349.832 695.189 349.971 694.754 350.247 694.375C350.527 693.996 350.908 693.699 351.389 693.483C351.874 693.267 352.423 693.159 353.037 693.159C353.901 693.159 354.579 693.348 355.071 693.727C355.567 694.106 355.92 694.606 356.128 695.227ZM360.283 702L357.624 693.273H359.033L360.919 699.955H361.01L362.874 693.273H364.305L366.146 699.932H366.237L368.124 693.273H369.533L366.874 702H365.555L363.646 695.295H363.51L361.601 702H360.283ZM374.554 702.182C373.766 702.182 373.075 701.994 372.48 701.619C371.889 701.244 371.427 700.72 371.094 700.045C370.764 699.371 370.599 698.583 370.599 697.682C370.599 696.773 370.764 695.979 371.094 695.301C371.427 694.623 371.889 694.097 372.48 693.722C373.075 693.347 373.766 693.159 374.554 693.159C375.342 693.159 376.031 693.347 376.622 693.722C377.217 694.097 377.679 694.623 378.009 695.301C378.342 695.979 378.509 696.773 378.509 697.682C378.509 698.583 378.342 699.371 378.009 700.045C377.679 700.72 377.217 701.244 376.622 701.619C376.031 701.994 375.342 702.182 374.554 702.182ZM374.554 700.977C375.152 700.977 375.645 700.824 376.031 700.517C376.418 700.21 376.704 699.807 376.889 699.307C377.075 698.807 377.168 698.265 377.168 697.682C377.168 697.098 377.075 696.555 376.889 696.051C376.704 695.547 376.418 695.14 376.031 694.83C375.645 694.519 375.152 694.364 374.554 694.364C373.955 694.364 373.463 694.519 373.077 694.83C372.69 695.14 372.404 695.547 372.219 696.051C372.033 696.555 371.94 697.098 371.94 697.682C371.94 698.265 372.033 698.807 372.219 699.307C372.404 699.807 372.69 700.21 373.077 700.517C373.463 700.824 373.955 700.977 374.554 700.977ZM380.555 702V693.273H381.851V694.591H381.942C382.101 694.159 382.389 693.809 382.805 693.54C383.222 693.271 383.692 693.136 384.214 693.136C384.313 693.136 384.436 693.138 384.584 693.142C384.732 693.146 384.843 693.152 384.919 693.159V694.523C384.874 694.511 384.769 694.494 384.607 694.472C384.447 694.445 384.279 694.432 384.101 694.432C383.677 694.432 383.298 694.521 382.964 694.699C382.635 694.873 382.374 695.116 382.18 695.426C381.991 695.733 381.896 696.083 381.896 696.477V702H380.555ZM389.538 702.182C388.811 702.182 388.169 701.998 387.612 701.631C387.055 701.259 386.62 700.737 386.305 700.062C385.991 699.384 385.834 698.583 385.834 697.659C385.834 696.742 385.991 695.947 386.305 695.273C386.62 694.598 387.057 694.078 387.618 693.71C388.179 693.343 388.826 693.159 389.561 693.159C390.129 693.159 390.578 693.254 390.908 693.443C391.241 693.629 391.495 693.841 391.669 694.08C391.847 694.314 391.985 694.508 392.084 694.659H392.197V690.364H393.538V702H392.243V700.659H392.084C391.985 700.818 391.845 701.019 391.663 701.261C391.482 701.5 391.222 701.714 390.885 701.903C390.548 702.089 390.099 702.182 389.538 702.182ZM389.72 700.977C390.258 700.977 390.713 700.837 391.084 700.557C391.455 700.273 391.737 699.881 391.93 699.381C392.124 698.877 392.22 698.295 392.22 697.636C392.22 696.985 392.125 696.415 391.936 695.926C391.747 695.434 391.466 695.051 391.095 694.778C390.724 694.502 390.266 694.364 389.72 694.364C389.152 694.364 388.679 694.509 388.3 694.801C387.925 695.089 387.643 695.481 387.453 695.977C387.268 696.47 387.175 697.023 387.175 697.636C387.175 698.258 387.269 698.822 387.459 699.33C387.652 699.833 387.936 700.235 388.311 700.534C388.69 700.83 389.16 700.977 389.72 700.977Z" fill="#D9D9D9"/>
<path d="M268 705.182H293.909V706.273H268V705.182ZM299.552 705.182H321.729V706.273H299.552V705.182ZM325.255 705.182H394.947V706.273H325.255V705.182Z" fill="#D9D9D9"/>
<path d="M357.23 834H355.753L360.026 822.364H361.48L365.753 834H364.276L360.798 824.205H360.707L357.23 834ZM357.776 829.455H363.73V830.705H357.776V829.455ZM368.724 822.364V834H367.384V822.364H368.724ZM371.18 834V825.273H372.476V826.591H372.567C372.726 826.159 373.014 825.809 373.43 825.54C373.847 825.271 374.317 825.136 374.839 825.136C374.938 825.136 375.061 825.138 375.209 825.142C375.357 825.146 375.468 825.152 375.544 825.159V826.523C375.499 826.511 375.394 826.494 375.232 826.472C375.072 826.445 374.904 826.432 374.726 826.432C374.302 826.432 373.923 826.521 373.589 826.699C373.26 826.873 372.999 827.116 372.805 827.426C372.616 827.733 372.521 828.083 372.521 828.477V834H371.18ZM380.527 834.182C379.686 834.182 378.961 833.996 378.351 833.625C377.745 833.25 377.277 832.727 376.947 832.057C376.622 831.383 376.459 830.598 376.459 829.705C376.459 828.811 376.622 828.023 376.947 827.341C377.277 826.655 377.735 826.121 378.322 825.739C378.913 825.352 379.603 825.159 380.391 825.159C380.845 825.159 381.294 825.235 381.737 825.386C382.18 825.538 382.584 825.784 382.947 826.125C383.311 826.462 383.601 826.909 383.817 827.466C384.033 828.023 384.141 828.708 384.141 829.523V830.091H377.413V828.932H382.777C382.777 828.439 382.679 828 382.482 827.614C382.288 827.227 382.012 826.922 381.652 826.699C381.296 826.475 380.875 826.364 380.391 826.364C379.857 826.364 379.394 826.496 379.004 826.761C378.618 827.023 378.321 827.364 378.112 827.784C377.904 828.205 377.8 828.655 377.8 829.136V829.909C377.8 830.568 377.913 831.127 378.141 831.585C378.372 832.04 378.692 832.386 379.101 832.625C379.51 832.86 379.985 832.977 380.527 832.977C380.879 832.977 381.197 832.928 381.482 832.83C381.769 832.727 382.018 832.576 382.226 832.375C382.434 832.17 382.595 831.917 382.709 831.614L384.004 831.977C383.868 832.417 383.639 832.803 383.317 833.136C382.995 833.466 382.597 833.723 382.124 833.909C381.65 834.091 381.118 834.182 380.527 834.182ZM388.749 834.205C388.196 834.205 387.694 834.1 387.243 833.892C386.792 833.68 386.434 833.375 386.169 832.977C385.904 832.576 385.771 832.091 385.771 831.523C385.771 831.023 385.87 830.617 386.067 830.307C386.264 829.992 386.527 829.746 386.857 829.568C387.186 829.39 387.55 829.258 387.947 829.17C388.349 829.08 388.752 829.008 389.158 828.955C389.688 828.886 390.118 828.835 390.447 828.801C390.781 828.763 391.023 828.701 391.175 828.614C391.33 828.527 391.408 828.375 391.408 828.159V828.114C391.408 827.553 391.254 827.117 390.947 826.807C390.644 826.496 390.184 826.341 389.567 826.341C388.927 826.341 388.425 826.481 388.061 826.761C387.697 827.042 387.442 827.341 387.294 827.659L386.021 827.205C386.249 826.674 386.552 826.261 386.93 825.966C387.313 825.667 387.73 825.458 388.18 825.341C388.635 825.22 389.082 825.159 389.521 825.159C389.802 825.159 390.124 825.193 390.487 825.261C390.855 825.326 391.209 825.46 391.55 825.665C391.894 825.869 392.18 826.178 392.408 826.591C392.635 827.004 392.749 827.557 392.749 828.25V834H391.408V832.818H391.339C391.249 833.008 391.097 833.21 390.885 833.426C390.673 833.642 390.391 833.826 390.038 833.977C389.686 834.129 389.256 834.205 388.749 834.205ZM388.953 833C389.483 833 389.93 832.896 390.294 832.688C390.661 832.479 390.938 832.21 391.124 831.881C391.313 831.551 391.408 831.205 391.408 830.841V829.614C391.351 829.682 391.226 829.744 391.033 829.801C390.843 829.854 390.624 829.902 390.374 829.943C390.127 829.981 389.887 830.015 389.652 830.045C389.421 830.072 389.233 830.095 389.089 830.114C388.741 830.159 388.415 830.233 388.112 830.335C387.813 830.434 387.571 830.583 387.385 830.784C387.203 830.981 387.112 831.25 387.112 831.591C387.112 832.057 387.285 832.409 387.629 832.648C387.978 832.883 388.419 833 388.953 833ZM398.491 834.182C397.764 834.182 397.122 833.998 396.565 833.631C396.009 833.259 395.573 832.737 395.259 832.062C394.944 831.384 394.787 830.583 394.787 829.659C394.787 828.742 394.944 827.947 395.259 827.273C395.573 826.598 396.01 826.078 396.571 825.71C397.132 825.343 397.779 825.159 398.514 825.159C399.082 825.159 399.531 825.254 399.861 825.443C400.194 825.629 400.448 825.841 400.622 826.08C400.8 826.314 400.938 826.508 401.037 826.659H401.151V822.364H402.491V834H401.196V832.659H401.037C400.938 832.818 400.798 833.019 400.616 833.261C400.435 833.5 400.175 833.714 399.838 833.903C399.501 834.089 399.052 834.182 398.491 834.182ZM398.673 832.977C399.211 832.977 399.666 832.837 400.037 832.557C400.408 832.273 400.69 831.881 400.884 831.381C401.077 830.877 401.173 830.295 401.173 829.636C401.173 828.985 401.079 828.415 400.889 827.926C400.7 827.434 400.42 827.051 400.048 826.778C399.677 826.502 399.219 826.364 398.673 826.364C398.105 826.364 397.632 826.509 397.253 826.801C396.878 827.089 396.596 827.481 396.406 827.977C396.221 828.47 396.128 829.023 396.128 829.636C396.128 830.258 396.223 830.822 396.412 831.33C396.605 831.833 396.889 832.235 397.264 832.534C397.643 832.83 398.113 832.977 398.673 832.977ZM405.997 837.273C405.77 837.273 405.567 837.254 405.389 837.216C405.211 837.182 405.088 837.148 405.02 837.114L405.361 835.932C405.687 836.015 405.974 836.045 406.224 836.023C406.474 836 406.696 835.888 406.889 835.688C407.086 835.491 407.266 835.17 407.429 834.727L407.679 834.045L404.452 825.273H405.906L408.315 832.227H408.406L410.815 825.273H412.27L408.565 835.273C408.399 835.723 408.192 836.097 407.946 836.392C407.7 836.691 407.414 836.913 407.088 837.057C406.766 837.201 406.402 837.273 405.997 837.273ZM419.881 828.75V834H418.54V822.364H419.881V826.636H419.994C420.199 826.186 420.506 825.828 420.915 825.562C421.328 825.294 421.877 825.159 422.562 825.159C423.157 825.159 423.678 825.278 424.125 825.517C424.572 825.752 424.919 826.114 425.165 826.602C425.415 827.087 425.54 827.705 425.54 828.455V834H424.199V828.545C424.199 827.852 424.019 827.316 423.659 826.938C423.303 826.555 422.809 826.364 422.176 826.364C421.737 826.364 421.343 826.456 420.994 826.642C420.65 826.828 420.377 827.098 420.176 827.455C419.979 827.811 419.881 828.242 419.881 828.75ZM430.561 834.205C430.008 834.205 429.506 834.1 429.055 833.892C428.605 833.68 428.247 833.375 427.982 832.977C427.716 832.576 427.584 832.091 427.584 831.523C427.584 831.023 427.682 830.617 427.879 830.307C428.076 829.992 428.339 829.746 428.669 829.568C428.999 829.39 429.362 829.258 429.76 829.17C430.161 829.08 430.565 829.008 430.97 828.955C431.5 828.886 431.93 828.835 432.26 828.801C432.593 828.763 432.836 828.701 432.987 828.614C433.143 828.527 433.22 828.375 433.22 828.159V828.114C433.22 827.553 433.067 827.117 432.76 826.807C432.457 826.496 431.997 826.341 431.379 826.341C430.739 826.341 430.237 826.481 429.874 826.761C429.51 827.042 429.254 827.341 429.107 827.659L427.834 827.205C428.061 826.674 428.364 826.261 428.743 825.966C429.125 825.667 429.542 825.458 429.993 825.341C430.447 825.22 430.894 825.159 431.334 825.159C431.614 825.159 431.936 825.193 432.3 825.261C432.667 825.326 433.021 825.46 433.362 825.665C433.707 825.869 433.993 826.178 434.22 826.591C434.447 827.004 434.561 827.557 434.561 828.25V834H433.22V832.818H433.152C433.061 833.008 432.91 833.21 432.697 833.426C432.485 833.642 432.203 833.826 431.851 833.977C431.499 834.129 431.069 834.205 430.561 834.205ZM430.766 833C431.296 833 431.743 832.896 432.107 832.688C432.474 832.479 432.75 832.21 432.936 831.881C433.125 831.551 433.22 831.205 433.22 830.841V829.614C433.163 829.682 433.038 829.744 432.845 829.801C432.656 829.854 432.436 829.902 432.186 829.943C431.94 829.981 431.699 830.015 431.464 830.045C431.233 830.072 431.046 830.095 430.902 830.114C430.554 830.159 430.228 830.233 429.925 830.335C429.625 830.434 429.383 830.583 429.197 830.784C429.016 830.981 428.925 831.25 428.925 831.591C428.925 832.057 429.097 832.409 429.442 832.648C429.79 832.883 430.232 833 430.766 833ZM443.832 825.273L440.605 834H439.241L436.014 825.273H437.469L439.878 832.227H439.969L442.378 825.273H443.832ZM448.949 834.182C448.108 834.182 447.383 833.996 446.773 833.625C446.167 833.25 445.699 832.727 445.369 832.057C445.044 831.383 444.881 830.598 444.881 829.705C444.881 828.811 445.044 828.023 445.369 827.341C445.699 826.655 446.157 826.121 446.744 825.739C447.335 825.352 448.025 825.159 448.812 825.159C449.267 825.159 449.716 825.235 450.159 825.386C450.602 825.538 451.006 825.784 451.369 826.125C451.733 826.462 452.023 826.909 452.239 827.466C452.455 828.023 452.562 828.708 452.562 829.523V830.091H445.835V828.932H451.199C451.199 828.439 451.1 828 450.903 827.614C450.71 827.227 450.434 826.922 450.074 826.699C449.718 826.475 449.297 826.364 448.812 826.364C448.278 826.364 447.816 826.496 447.426 826.761C447.04 827.023 446.742 827.364 446.534 827.784C446.326 828.205 446.222 828.655 446.222 829.136V829.909C446.222 830.568 446.335 831.127 446.562 831.585C446.794 832.04 447.114 832.386 447.523 832.625C447.932 832.86 448.407 832.977 448.949 832.977C449.301 832.977 449.619 832.928 449.903 832.83C450.191 832.727 450.439 832.576 450.648 832.375C450.856 832.17 451.017 831.917 451.131 831.614L452.426 831.977C452.29 832.417 452.061 832.803 451.739 833.136C451.417 833.466 451.019 833.723 450.545 833.909C450.072 834.091 449.54 834.182 448.949 834.182ZM461.67 834.205C461.117 834.205 460.616 834.1 460.165 833.892C459.714 833.68 459.356 833.375 459.091 832.977C458.826 832.576 458.693 832.091 458.693 831.523C458.693 831.023 458.792 830.617 458.989 830.307C459.186 829.992 459.449 829.746 459.778 829.568C460.108 829.39 460.472 829.258 460.869 829.17C461.271 829.08 461.674 829.008 462.08 828.955C462.61 828.886 463.04 828.835 463.369 828.801C463.703 828.763 463.945 828.701 464.097 828.614C464.252 828.527 464.33 828.375 464.33 828.159V828.114C464.33 827.553 464.176 827.117 463.869 826.807C463.566 826.496 463.106 826.341 462.489 826.341C461.848 826.341 461.347 826.481 460.983 826.761C460.619 827.042 460.364 827.341 460.216 827.659L458.943 827.205C459.17 826.674 459.473 826.261 459.852 825.966C460.235 825.667 460.652 825.458 461.102 825.341C461.557 825.22 462.004 825.159 462.443 825.159C462.723 825.159 463.045 825.193 463.409 825.261C463.777 825.326 464.131 825.46 464.472 825.665C464.816 825.869 465.102 826.178 465.33 826.591C465.557 827.004 465.67 827.557 465.67 828.25V834H464.33V832.818H464.261C464.17 833.008 464.019 833.21 463.807 833.426C463.595 833.642 463.313 833.826 462.96 833.977C462.608 834.129 462.178 834.205 461.67 834.205ZM461.875 833C462.405 833 462.852 832.896 463.216 832.688C463.583 832.479 463.86 832.21 464.045 831.881C464.235 831.551 464.33 831.205 464.33 830.841V829.614C464.273 829.682 464.148 829.744 463.955 829.801C463.765 829.854 463.545 829.902 463.295 829.943C463.049 829.981 462.809 830.015 462.574 830.045C462.343 830.072 462.155 830.095 462.011 830.114C461.663 830.159 461.337 830.233 461.034 830.335C460.735 830.434 460.492 830.583 460.307 830.784C460.125 830.981 460.034 831.25 460.034 831.591C460.034 832.057 460.206 832.409 460.551 832.648C460.9 832.883 461.341 833 461.875 833ZM469.459 828.75V834H468.118V825.273H469.413V826.636H469.527C469.732 826.193 470.042 825.837 470.459 825.568C470.875 825.295 471.413 825.159 472.072 825.159C472.663 825.159 473.18 825.28 473.624 825.523C474.067 825.761 474.411 826.125 474.658 826.614C474.904 827.098 475.027 827.712 475.027 828.455V834H473.686V828.545C473.686 827.86 473.508 827.326 473.152 826.943C472.796 826.557 472.307 826.364 471.686 826.364C471.258 826.364 470.875 826.456 470.538 826.642C470.205 826.828 469.942 827.098 469.749 827.455C469.555 827.811 469.459 828.242 469.459 828.75ZM484.545 834.205C483.992 834.205 483.491 834.1 483.04 833.892C482.589 833.68 482.231 833.375 481.966 832.977C481.701 832.576 481.568 832.091 481.568 831.523C481.568 831.023 481.667 830.617 481.864 830.307C482.061 829.992 482.324 829.746 482.653 829.568C482.983 829.39 483.347 829.258 483.744 829.17C484.146 829.08 484.549 829.008 484.955 828.955C485.485 828.886 485.915 828.835 486.244 828.801C486.578 828.763 486.82 828.701 486.972 828.614C487.127 828.527 487.205 828.375 487.205 828.159V828.114C487.205 827.553 487.051 827.117 486.744 826.807C486.441 826.496 485.981 826.341 485.364 826.341C484.723 826.341 484.222 826.481 483.858 826.761C483.494 827.042 483.239 827.341 483.091 827.659L481.818 827.205C482.045 826.674 482.348 826.261 482.727 825.966C483.11 825.667 483.527 825.458 483.977 825.341C484.432 825.22 484.879 825.159 485.318 825.159C485.598 825.159 485.92 825.193 486.284 825.261C486.652 825.326 487.006 825.46 487.347 825.665C487.691 825.869 487.977 826.178 488.205 826.591C488.432 827.004 488.545 827.557 488.545 828.25V834H487.205V832.818H487.136C487.045 833.008 486.894 833.21 486.682 833.426C486.47 833.642 486.188 833.826 485.835 833.977C485.483 834.129 485.053 834.205 484.545 834.205ZM484.75 833C485.28 833 485.727 832.896 486.091 832.688C486.458 832.479 486.735 832.21 486.92 831.881C487.11 831.551 487.205 831.205 487.205 830.841V829.614C487.148 829.682 487.023 829.744 486.83 829.801C486.64 829.854 486.42 829.902 486.17 829.943C485.924 829.981 485.684 830.015 485.449 830.045C485.218 830.072 485.03 830.095 484.886 830.114C484.538 830.159 484.212 830.233 483.909 830.335C483.61 830.434 483.367 830.583 483.182 830.784C483 830.981 482.909 831.25 482.909 831.591C482.909 832.057 483.081 832.409 483.426 832.648C483.775 832.883 484.216 833 484.75 833ZM494.538 834.182C493.72 834.182 493.016 833.989 492.425 833.602C491.834 833.216 491.379 832.684 491.061 832.006C490.743 831.328 490.584 830.553 490.584 829.682C490.584 828.795 490.747 828.013 491.072 827.335C491.402 826.653 491.86 826.121 492.447 825.739C493.038 825.352 493.728 825.159 494.516 825.159C495.129 825.159 495.682 825.273 496.175 825.5C496.667 825.727 497.071 826.045 497.385 826.455C497.699 826.864 497.894 827.341 497.97 827.886H496.629C496.527 827.489 496.3 827.136 495.947 826.83C495.599 826.519 495.129 826.364 494.538 826.364C494.016 826.364 493.557 826.5 493.163 826.773C492.773 827.042 492.468 827.422 492.249 827.915C492.033 828.403 491.925 828.977 491.925 829.636C491.925 830.311 492.031 830.898 492.243 831.398C492.459 831.898 492.762 832.286 493.152 832.562C493.546 832.839 494.008 832.977 494.538 832.977C494.887 832.977 495.203 832.917 495.487 832.795C495.771 832.674 496.012 832.5 496.209 832.273C496.406 832.045 496.546 831.773 496.629 831.455H497.97C497.894 831.97 497.707 832.434 497.408 832.847C497.112 833.256 496.72 833.581 496.232 833.824C495.747 834.062 495.182 834.182 494.538 834.182ZM503.476 834.182C502.658 834.182 501.953 833.989 501.362 833.602C500.771 833.216 500.317 832.684 499.999 832.006C499.68 831.328 499.521 830.553 499.521 829.682C499.521 828.795 499.684 828.013 500.01 827.335C500.339 826.653 500.798 826.121 501.385 825.739C501.976 825.352 502.665 825.159 503.453 825.159C504.067 825.159 504.62 825.273 505.112 825.5C505.605 825.727 506.008 826.045 506.322 826.455C506.637 826.864 506.832 827.341 506.908 827.886H505.567C505.464 827.489 505.237 827.136 504.885 826.83C504.536 826.519 504.067 826.364 503.476 826.364C502.953 826.364 502.495 826.5 502.101 826.773C501.711 827.042 501.406 827.422 501.186 827.915C500.97 828.403 500.862 828.977 500.862 829.636C500.862 830.311 500.968 830.898 501.18 831.398C501.396 831.898 501.699 832.286 502.089 832.562C502.483 832.839 502.946 832.977 503.476 832.977C503.824 832.977 504.141 832.917 504.425 832.795C504.709 832.674 504.949 832.5 505.146 832.273C505.343 832.045 505.483 831.773 505.567 831.455H506.908C506.832 831.97 506.644 832.434 506.345 832.847C506.05 833.256 505.658 833.581 505.169 833.824C504.684 834.062 504.12 834.182 503.476 834.182ZM512.413 834.182C511.625 834.182 510.934 833.994 510.339 833.619C509.749 833.244 509.286 832.72 508.953 832.045C508.624 831.371 508.459 830.583 508.459 829.682C508.459 828.773 508.624 827.979 508.953 827.301C509.286 826.623 509.749 826.097 510.339 825.722C510.934 825.347 511.625 825.159 512.413 825.159C513.201 825.159 513.891 825.347 514.482 825.722C515.076 826.097 515.538 826.623 515.868 827.301C516.201 827.979 516.368 828.773 516.368 829.682C516.368 830.583 516.201 831.371 515.868 832.045C515.538 832.72 515.076 833.244 514.482 833.619C513.891 833.994 513.201 834.182 512.413 834.182ZM512.413 832.977C513.012 832.977 513.504 832.824 513.891 832.517C514.277 832.21 514.563 831.807 514.749 831.307C514.934 830.807 515.027 830.265 515.027 829.682C515.027 829.098 514.934 828.555 514.749 828.051C514.563 827.547 514.277 827.14 513.891 826.83C513.504 826.519 513.012 826.364 512.413 826.364C511.815 826.364 511.322 826.519 510.936 826.83C510.55 827.14 510.264 827.547 510.078 828.051C509.893 828.555 509.8 829.098 509.8 829.682C509.8 830.265 509.893 830.807 510.078 831.307C510.264 831.807 510.55 832.21 510.936 832.517C511.322 832.824 511.815 832.977 512.413 832.977ZM523.915 830.432V825.273H525.256V834H523.915V832.523H523.824C523.619 832.966 523.301 833.343 522.869 833.653C522.438 833.96 521.892 834.114 521.233 834.114C520.688 834.114 520.203 833.994 519.778 833.756C519.354 833.513 519.021 833.15 518.778 832.665C518.536 832.176 518.415 831.561 518.415 830.818V825.273H519.756V830.727C519.756 831.364 519.934 831.871 520.29 832.25C520.65 832.629 521.108 832.818 521.665 832.818C521.998 832.818 522.337 832.733 522.682 832.562C523.03 832.392 523.322 832.131 523.557 831.778C523.795 831.426 523.915 830.977 523.915 830.432ZM529.053 828.75V834H527.712V825.273H529.007V826.636H529.121C529.325 826.193 529.636 825.837 530.053 825.568C530.469 825.295 531.007 825.159 531.666 825.159C532.257 825.159 532.774 825.28 533.217 825.523C533.661 825.761 534.005 826.125 534.251 826.614C534.498 827.098 534.621 827.712 534.621 828.455V834H533.28V828.545C533.28 827.86 533.102 827.326 532.746 826.943C532.39 826.557 531.901 826.364 531.28 826.364C530.852 826.364 530.469 826.456 530.132 826.642C529.799 826.828 529.536 827.098 529.342 827.455C529.149 827.811 529.053 828.242 529.053 828.75ZM540.866 825.273V826.409H536.344V825.273H540.866ZM537.662 823.182H539.003V831.5C539.003 831.879 539.058 832.163 539.168 832.352C539.281 832.538 539.425 832.663 539.599 832.727C539.777 832.788 539.965 832.818 540.162 832.818C540.31 832.818 540.431 832.811 540.526 832.795C540.62 832.777 540.696 832.761 540.753 832.75L541.026 833.955C540.935 833.989 540.808 834.023 540.645 834.057C540.482 834.095 540.276 834.114 540.026 834.114C539.647 834.114 539.276 834.032 538.912 833.869C538.552 833.706 538.253 833.458 538.014 833.125C537.779 832.792 537.662 832.371 537.662 831.864V823.182ZM544.634 830.727V830.659C544.641 829.936 544.717 829.36 544.861 828.932C545.005 828.504 545.209 828.157 545.474 827.892C545.74 827.627 546.058 827.383 546.429 827.159C546.652 827.023 546.853 826.862 547.031 826.676C547.209 826.487 547.349 826.269 547.452 826.023C547.558 825.777 547.611 825.504 547.611 825.205C547.611 824.833 547.524 824.511 547.349 824.239C547.175 823.966 546.942 823.756 546.651 823.608C546.359 823.46 546.035 823.386 545.679 823.386C545.368 823.386 545.069 823.451 544.781 823.58C544.493 823.708 544.253 823.911 544.06 824.188C543.866 824.464 543.755 824.826 543.724 825.273H542.293C542.323 824.629 542.49 824.078 542.793 823.619C543.099 823.161 543.503 822.811 544.003 822.568C544.507 822.326 545.065 822.205 545.679 822.205C546.346 822.205 546.925 822.337 547.418 822.602C547.914 822.867 548.296 823.231 548.565 823.693C548.838 824.155 548.974 824.682 548.974 825.273C548.974 825.689 548.91 826.066 548.781 826.403C548.656 826.741 548.474 827.042 548.236 827.307C548.001 827.572 547.717 827.807 547.384 828.011C547.05 828.22 546.783 828.439 546.582 828.67C546.382 828.898 546.236 829.169 546.145 829.483C546.054 829.797 546.005 830.189 545.997 830.659V830.727H544.634ZM545.361 834.091C545.08 834.091 544.84 833.991 544.639 833.79C544.438 833.589 544.338 833.348 544.338 833.068C544.338 832.788 544.438 832.547 544.639 832.347C544.84 832.146 545.08 832.045 545.361 832.045C545.641 832.045 545.882 832.146 546.082 832.347C546.283 832.547 546.384 832.788 546.384 833.068C546.384 833.254 546.336 833.424 546.241 833.58C546.151 833.735 546.027 833.86 545.872 833.955C545.721 834.045 545.55 834.091 545.361 834.091ZM555.675 834V822.364H557.084V832.75H562.493V834H555.675ZM568.038 834.182C567.25 834.182 566.559 833.994 565.964 833.619C565.374 833.244 564.911 832.72 564.578 832.045C564.249 831.371 564.084 830.583 564.084 829.682C564.084 828.773 564.249 827.979 564.578 827.301C564.911 826.623 565.374 826.097 565.964 825.722C566.559 825.347 567.25 825.159 568.038 825.159C568.826 825.159 569.516 825.347 570.107 825.722C570.701 826.097 571.163 826.623 571.493 827.301C571.826 827.979 571.993 828.773 571.993 829.682C571.993 830.583 571.826 831.371 571.493 832.045C571.163 832.72 570.701 833.244 570.107 833.619C569.516 833.994 568.826 834.182 568.038 834.182ZM568.038 832.977C568.637 832.977 569.129 832.824 569.516 832.517C569.902 832.21 570.188 831.807 570.374 831.307C570.559 830.807 570.652 830.265 570.652 829.682C570.652 829.098 570.559 828.555 570.374 828.051C570.188 827.547 569.902 827.14 569.516 826.83C569.129 826.519 568.637 826.364 568.038 826.364C567.44 826.364 566.947 826.519 566.561 826.83C566.175 827.14 565.889 827.547 565.703 828.051C565.518 828.555 565.425 829.098 565.425 829.682C565.425 830.265 565.518 830.807 565.703 831.307C565.889 831.807 566.175 832.21 566.561 832.517C566.947 832.824 567.44 832.977 568.038 832.977ZM577.562 837.455C576.915 837.455 576.358 837.371 575.892 837.205C575.426 837.042 575.038 836.826 574.727 836.557C574.42 836.292 574.176 836.008 573.994 835.705L575.062 834.955C575.184 835.114 575.337 835.295 575.523 835.5C575.708 835.708 575.962 835.888 576.284 836.04C576.61 836.195 577.036 836.273 577.562 836.273C578.267 836.273 578.848 836.102 579.307 835.761C579.765 835.42 579.994 834.886 579.994 834.159V832.386H579.881C579.782 832.545 579.642 832.742 579.46 832.977C579.282 833.208 579.025 833.415 578.688 833.597C578.354 833.775 577.903 833.864 577.335 833.864C576.631 833.864 575.998 833.697 575.438 833.364C574.881 833.03 574.439 832.545 574.114 831.909C573.792 831.273 573.631 830.5 573.631 829.591C573.631 828.697 573.788 827.919 574.102 827.256C574.417 826.589 574.854 826.074 575.415 825.71C575.975 825.343 576.623 825.159 577.358 825.159C577.926 825.159 578.377 825.254 578.71 825.443C579.047 825.629 579.305 825.841 579.483 826.08C579.665 826.314 579.805 826.508 579.903 826.659H580.04V825.273H581.335V834.25C581.335 835 581.165 835.61 580.824 836.08C580.487 836.553 580.032 836.9 579.46 837.119C578.892 837.343 578.259 837.455 577.562 837.455ZM577.517 832.659C578.055 832.659 578.509 832.536 578.881 832.29C579.252 832.044 579.534 831.689 579.727 831.227C579.92 830.765 580.017 830.212 580.017 829.568C580.017 828.939 579.922 828.384 579.733 827.903C579.544 827.422 579.263 827.045 578.892 826.773C578.521 826.5 578.063 826.364 577.517 826.364C576.949 826.364 576.475 826.508 576.097 826.795C575.722 827.083 575.439 827.47 575.25 827.955C575.064 828.439 574.972 828.977 574.972 829.568C574.972 830.174 575.066 830.71 575.256 831.176C575.449 831.638 575.733 832.002 576.108 832.267C576.487 832.528 576.956 832.659 577.517 832.659ZM589.881 822.364V834H588.472V822.364H589.881ZM593.865 828.75V834H592.524V825.273H593.82V826.636H593.933C594.138 826.193 594.448 825.837 594.865 825.568C595.282 825.295 595.82 825.159 596.479 825.159C597.07 825.159 597.587 825.28 598.03 825.523C598.473 825.761 598.818 826.125 599.064 826.614C599.31 827.098 599.433 827.712 599.433 828.455V834H598.092V828.545C598.092 827.86 597.914 827.326 597.558 826.943C597.202 826.557 596.714 826.364 596.092 826.364C595.664 826.364 595.282 826.456 594.945 826.642C594.611 826.828 594.348 827.098 594.155 827.455C593.962 827.811 593.865 828.242 593.865 828.75Z" fill="#D9D9D9"/>
<path d="M554.266 837.182H574.737V838.273H554.266V837.182ZM580.38 837.182H600.661V838.273H580.38V837.182Z" fill="#D9D9D9"/>
<g clip-path="url(#clip2_26_77)">
<path d="M679.92 647.92C677.641 649.657 674.865 650.62 672 650.667C662.667 650.667 657.333 640 657.333 640C658.992 636.909 661.292 634.209 664.08 632.08M669.2 629.653C670.118 629.438 671.057 629.331 672 629.333C681.333 629.333 686.667 640 686.667 640C685.857 641.514 684.892 642.94 683.787 644.253M674.827 642.827C674.46 643.22 674.019 643.535 673.528 643.753C673.037 643.972 672.508 644.09 671.971 644.099C671.434 644.109 670.9 644.01 670.402 643.809C669.904 643.607 669.452 643.308 669.072 642.928C668.692 642.548 668.392 642.096 668.191 641.598C667.99 641.1 667.891 640.566 667.901 640.029C667.91 639.492 668.028 638.962 668.246 638.472C668.465 637.981 668.78 637.54 669.173 637.173M657.333 625.333L686.667 654.667" stroke="#D9D9D9" stroke-width="3" stroke-linecap="round" stroke-linejoin="round"/>
</g>
<g filter="url(#filter2_f_26_77)">
<path d="M-142 1080C-364.571 1080 -545 838.234 -545 540C-545 241.766 -364.57 -1.30342e-06 -142 -8.3968e-07C80.571 -3.75938e-07 261 59.8944 261 540C261 1020.11 80.5709 1080 -142 1080Z" fill="#2F2F2F"/>
</g>
<g filter="url(#filter3_f_26_77)">
<path d="M-142 948.442C-310.541 948.442 -447.17 765.576 -447.17 540C-447.17 314.424 -310.541 131.558 -142 131.558C26.5408 131.558 163.17 176.861 163.17 540C163.17 903.139 26.5407 948.442 -142 948.442Z" fill="#BCBCBC"/>
</g>
<g filter="url(#filter4_f_26_77)">
<path d="M-142 774.816C-238.77 774.816 -317.217 669.685 -317.217 540C-317.217 410.315 -238.77 305.184 -142 305.184C-45.2301 305.184 33.2174 331.229 33.2174 540C33.2174 748.771 -45.2301 774.816 -142 774.816Z" fill="white"/>
</g>
</g>
<defs>
<filter id="filter0_f_26_77" x="1172.9" y="272.9" width="534.2" height="534.2" filterUnits="userSpaceOnUse" color-interpolation-filters="sRGB">
<feFlood flood-opacity="0" result="BackgroundImageFix"/>
<feBlend mode="normal" in="SourceGraphic" in2="BackgroundImageFix" result="shape"/>
<feGaussianBlur stdDeviation="11.05" result="effect1_foregroundBlur_26_77"/>
</filter>
<filter id="filter1_f_26_77" x="225.9" y="713.9" width="504.2" height="116.2" filterUnits="userSpaceOnUse" color-interpolation-filters="sRGB">
<feFlood flood-opacity="0" result="BackgroundImageFix"/>
<feBlend mode="normal" in="SourceGraphic" in2="BackgroundImageFix" result="shape"/>
<feGaussianBlur stdDeviation="11.05" result="effect1_foregroundBlur_26_77"/>
</filter>
<filter id="filter2_f_26_77" x="-695" y="-150" width="1106" height="1380" filterUnits="userSpaceOnUse" color-interpolation-filters="sRGB">
<feFlood flood-opacity="0" result="BackgroundImageFix"/>
<feBlend mode="normal" in="SourceGraphic" in2="BackgroundImageFix" result="shape"/>
<feGaussianBlur stdDeviation="75" result="effect1_foregroundBlur_26_77"/>
</filter>
<filter id="filter3_f_26_77" x="-597.17" y="-18.4419" width="910.34" height="1116.88" filterUnits="userSpaceOnUse" color-interpolation-filters="sRGB">
<feFlood flood-opacity="0" result="BackgroundImageFix"/>
<feBlend mode="normal" in="SourceGraphic" in2="BackgroundImageFix" result="shape"/>
<feGaussianBlur stdDeviation="75" result="effect1_foregroundBlur_26_77"/>
</filter>
<filter id="filter4_f_26_77" x="-467.217" y="155.184" width="650.435" height="769.632" filterUnits="userSpaceOnUse" color-interpolation-filters="sRGB">
<feFlood flood-opacity="0" result="BackgroundImageFix"/>
<feBlend mode="normal" in="SourceGraphic" in2="BackgroundImageFix" result="shape"/>
<feGaussianBlur stdDeviation="75" result="effect1_foregroundBlur_26_77"/>
</filter>
<clipPath id="clip0_26_77">
<rect width="1920" height="1080" fill="white"/>
</clipPath>
<clipPath id="clip1_26_77">
<rect width="490" height="490" fill="white" transform="translate(1195 295)"/>
</clipPath>
<clipPath id="clip2_26_77">
<rect width="32" height="32" fill="white" transform="translate(656 624)"/>
</clipPath>
</defs>
</svg>
